<?xml version="1.0" standalone="no"?>
<!DOCTYPE svg PUBLIC "-//W3C//DTD SVG 1.1//EN" "http://www.w3.org/Graphics/SVG/1.1/DTD/svg11.dtd" >
<svg xmlns="http://www.w3.org/2000/svg">
<metadata></metadata>
<defs>
<font id="sackers_gothic_lightlight" horiz-adv-x="757" >
<font-face units-per-em="2048" ascent="1638" descent="-410" />
<missing-glyph horiz-adv-x="500" />
<glyph horiz-adv-x="2048" />
<glyph horiz-adv-x="2048" />
<glyph unicode="&#xd;" />
<glyph unicode=" " />
<glyph unicode="!" horiz-adv-x="681" d="M211 96q0 53 38 91t91 38t91 -38t38 -91t-38 -91t-91 -38t-91 38t-38 91zM248 1536h184l-37 -1169h-110z" />
<glyph unicode="#" horiz-adv-x="1669" d="M74 442l16 113h379l47 299h-377l19 113h377l59 368h123l-60 -368h469l60 368h123l-60 -368h381l-18 -113h-381l-47 -299h379l-17 -113h-379l-69 -444h-123l69 444h-469l-69 -444h-123l70 444h-379zM592 555h469l47 299h-469z" />
<glyph unicode="$" horiz-adv-x="1820" d="M182 244l94 100q61 -55 126 -99t138.5 -75t159.5 -47.5t191 -16.5v525q-55 0 -120.5 2t-132.5 10t-130.5 28.5t-111.5 57.5t-77.5 94.5t-29.5 139.5q0 113 62.5 190.5t154.5 124.5t196.5 68.5t188.5 21.5v168h110v-168q55 0 122 -11t139.5 -34t148.5 -59.5t148 -85.5 l-89 -111q-41 33 -102 61.5t-129 50t-131.5 34t-106.5 16.5v-459q29 0 87.5 -2t129 -13.5t145.5 -35t136.5 -67.5t100 -111.5t38.5 -165.5q0 -90 -36.5 -154.5t-95 -109.5t-131 -73t-143.5 -44.5t-132.5 -21.5t-98.5 -5v-137h-110v137q-123 6 -216 22.5t-175 48.5t-157 82 t-161 124zM444 967q0 -68 34 -107t94.5 -58.5t141.5 -25.5t177 -6v459q-33 0 -78 -4t-95 -15.5t-99.5 -31t-87 -48t-62.5 -69.5t-25 -94zM1001 106q18 0 61.5 3.5t96.5 13.5t110.5 29.5t104.5 50t78 76t31 108.5q0 86 -47 135t-120 72.5t-157 30t-158 6.5v-525z" />
<glyph unicode="&#x26;" horiz-adv-x="1781" d="M162 395q0 98 43 170t106.5 120t136 78t134.5 46q-16 18 -42 44t-50.5 58.5t-42 71.5t-17.5 82q0 51 28.5 105.5t85 98.5t140.5 71.5t193 27.5q111 0 212 -29.5t197 -76.5l-59 -125q-41 18 -79 35.5t-80 29.5t-92 19.5t-114 7.5q-51 0 -103 -11.5t-94 -32t-69 -49 t-27 -63.5q0 -45 32 -81t65 -66l606 -590q33 29 58.5 56.5t49 58t46 66.5t51.5 81l118 -76q-45 -76 -94 -144.5t-125 -141.5l242 -236h-197l-151 143q-18 -14 -63.5 -43.5t-113 -58.5t-154.5 -51.5t-189 -22.5q-135 0 -244 35t-185.5 94.5t-117.5 137t-41 161.5zM301 401 q0 -74 39 -129t101.5 -92t143.5 -55.5t167 -18.5t150.5 14.5t113.5 35t85 45t64 45.5l-469 448q-43 -10 -109.5 -29.5t-130 -53t-109.5 -85t-46 -125.5z" />
<glyph unicode="(" horiz-adv-x="872" d="M201 766q0 119 31.5 225.5t79.5 195.5t105.5 159.5t107.5 120t87 76t43 26.5q14 0 15 -13q0 -14 -47.5 -66t-103.5 -148.5t-103 -238.5t-47 -337t47 -336t103 -236.5t103.5 -147.5t47.5 -66q0 -12 -15 -13q-6 0 -41.5 26.5t-87 76t-108 119t-105.5 158.5t-80.5 194.5 t-31.5 224.5z" />
<glyph unicode=")" horiz-adv-x="872" d="M201 -20q0 14 47 66t103.5 147.5t103.5 236.5t47 336t-47 337t-103.5 238.5t-103.5 148.5t-47 66q0 12 14 13q6 0 43 -26.5t87 -76t107.5 -120t105.5 -159.5t80 -195.5t32 -225.5t-32 -224.5t-81 -194.5t-105.5 -158.5t-107.5 -119t-87 -76t-42 -26.5q-14 0 -14 13z" />
<glyph unicode="*" horiz-adv-x="1214" d="M238 1100v151l311 -41l-201 242l144 84l118 -285l123 285l137 -84l-194 -242l301 41v-153l-301 39l194 -248l-137 -74l-125 279l-116 -279l-144 74l201 248z" />
<glyph unicode="," horiz-adv-x="796" d="M311 113q0 53 39 82.5t90 29.5q29 0 59.5 -14t55.5 -42t41 -67t16 -90q0 -84 -35.5 -148.5t-79.5 -108.5t-84 -66.5t-48 -22.5q-4 0 -10.5 5t-6.5 16q0 8 27.5 28.5t61.5 51t62.5 73.5t28.5 101q0 18 -16 23t-38.5 7t-47.5 4t-41 13q-35 23 -54.5 46t-19.5 79z" />
<glyph unicode="-" horiz-adv-x="681" d="M55 467v119h570v-119h-570z" />
<glyph unicode="." d="M250 96q0 53 38 91t91 38t91 -38t38 -91t-38 -91t-91 -38t-91 38t-38 91z" />
<glyph unicode="/" horiz-adv-x="1290" d="M119 0l887 1536h139l-887 -1536h-139z" />
<glyph unicode="0" horiz-adv-x="1820" d="M117 668q0 150 58 278.5t163.5 222t251 146.5t319.5 53t319.5 -53t251 -146.5t164 -222t58.5 -278.5q0 -152 -58.5 -280t-164 -221t-251 -146.5t-319.5 -53.5t-319.5 53.5t-251 146.5t-163.5 221t-58 280zM256 668q0 -113 41 -215.5t123 -179t203.5 -122t285.5 -45.5 q162 0 285 45.5t205 122t123 179t41 215.5t-41 215t-123 179t-205 122t-285 45q-164 0 -285.5 -45t-203.5 -122t-123 -179.5t-41 -214.5z" />
<glyph unicode="1" horiz-adv-x="1214" d="M537 0v1335h139v-1335h-139z" />
<glyph unicode="2" horiz-adv-x="1820" d="M297 0q0 170 38 304t108.5 229.5t172 150.5t228.5 68l313 30q57 6 100 24.5t71 44.5t41 57.5t13 62.5q0 72 -37.5 121t-99 79.5t-140.5 44t-161 13.5q-115 0 -202 -16.5t-152.5 -40t-111.5 -49t-79 -44.5l-65 123q55 31 116.5 60.5t134 53t161 38t198.5 14.5 q117 0 221.5 -24.5t183 -73.5t126 -124t47.5 -175q0 -80 -36 -140.5t-92.5 -103.5t-126 -66.5t-137.5 -27.5l-245 -17q-121 -8 -206 -62t-139.5 -128t-79 -151.5t-24.5 -135.5h1088v-139h-1227z" />
<glyph unicode="3" horiz-adv-x="1820" d="M197 166l73 119q33 -23 82 -52.5t121 -58.5t173.5 -48.5t238.5 -19.5q90 0 195.5 13.5t195.5 44.5t149.5 82t59.5 125q0 66 -39 115t-105.5 81.5t-153.5 49t-183 16.5h-183v139h183q84 0 155.5 15.5t123.5 44t82 70.5t30 95q0 43 -32 85t-93.5 74t-149.5 52.5t-200 20.5 q-78 0 -149 -12.5t-133.5 -32t-116.5 -43t-103 -45.5l-64 123q131 66 267.5 107.5t302.5 41.5q98 0 205.5 -19.5t197.5 -63.5t148.5 -113.5t58.5 -170.5q0 -61 -18.5 -107t-46 -81t-60.5 -59.5t-61 -40.5q43 -18 92 -45t90 -67t67.5 -94t26.5 -128q0 -84 -35 -146.5 t-93 -108.5t-135 -76t-161 -48t-169 -25.5t-159 -7.5q-150 0 -261 22.5t-192 54.5t-134.5 65.5t-87.5 56.5z" />
<glyph unicode="4" horiz-adv-x="1820" d="M152 516l1038 819h139v-839h340v-140h-340v-356h-139v356h-969zM348 496h842v663l-842 -659v-4z" />
<glyph unicode="5" horiz-adv-x="1820" d="M215 160l78 112q125 -76 276.5 -121t323.5 -45q143 0 250.5 28t179.5 72t107.5 101.5t35.5 118.5q0 51 -31.5 105.5t-94 98.5t-153.5 71.5t-210 27.5q-111 0 -201 -18.5t-163.5 -45t-133 -54t-108.5 -46.5l-95 74v696h1219v-139h-1079v-453q125 51 259 88t292 37 q152 0 270.5 -37.5t200.5 -99t125 -138.5t43 -157q0 -115 -59.5 -203t-159 -147t-228.5 -89t-268 -30q-158 0 -275.5 26.5t-199.5 60.5t-131 65t-70 41z" />
<glyph unicode="6" horiz-adv-x="1820" d="M160 647q0 154 65.5 286t179 228t267 151.5t332.5 55.5q111 0 207 -23.5t170.5 -56.5t129 -66.5t82.5 -54.5l-80 -112q-59 35 -117.5 66.5t-122 55t-133 38t-149.5 14.5q-160 0 -289 -51.5t-218 -135.5t-137 -192.5t-48 -222.5q20 12 76.5 46t145.5 68.5t210 61t270 26.5 q106 0 223 -21.5t213.5 -69.5t159 -127t62.5 -195q0 -113 -67.5 -197t-172 -140t-232.5 -84t-249 -28q-174 0 -317.5 53.5t-246 145.5t-158.5 216t-56 265zM332 469q16 -39 54 -100.5t108.5 -120t179 -100.5t266.5 -42q98 0 201.5 20.5t187.5 60.5t137.5 98.5t53.5 136.5 q0 53 -36 102t-103.5 86t-163 58.5t-213.5 21.5q-156 0 -277 -31.5t-206 -71.5t-133 -75t-56 -43z" />
<glyph unicode="7" horiz-adv-x="1820" d="M287 1196v139h1169l78 -121l-891 -1214h-174l879 1196h-1061z" />
<glyph unicode="8" horiz-adv-x="1820" d="M182 371q0 78 30 136t73 100t92 68.5t90 39.5q-18 12 -48 34.5t-59.5 57.5t-51 84t-21.5 110q0 104 47 174t131 113t197.5 61.5t246.5 18.5q131 0 246 -18.5t198 -61.5t131 -113.5t48 -173.5q0 -61 -21.5 -110t-51 -84t-59.5 -57.5t-48 -34.5q39 -12 89 -39t93 -69 t72.5 -100t29.5 -136q0 -113 -62.5 -190t-164.5 -125t-233.5 -68.5t-266.5 -20.5t-266 20.5t-233.5 68.5t-165 125t-62.5 190zM322 375q0 -66 42 -115t118.5 -84t185 -52.5t241.5 -17.5t242 17.5t185.5 52.5t118.5 84t42 115q0 53 -33.5 100t-106.5 83t-183.5 57.5 t-264.5 21.5t-264 -21.5t-183 -57.5t-106.5 -84t-33.5 -99zM426 999q0 -223 483 -223t484 223q0 106 -119 168t-365 62t-364.5 -62.5t-118.5 -167.5z" />
<glyph unicode="9" horiz-adv-x="1820" d="M160 920q0 113 67.5 196.5t172 140t232.5 84t249 27.5q174 0 317 -53t245.5 -145.5t159 -216.5t56.5 -265q0 -154 -65.5 -286t-179.5 -228t-267.5 -151.5t-331.5 -55.5q-111 0 -207 23.5t-171 56.5t-129 66.5t-83 54.5l80 113q59 -35 117.5 -67t122 -55.5t133.5 -38 t149 -14.5q160 0 289 51.5t218 135.5t137.5 192.5t48.5 223.5q-20 -12 -77 -46t-146 -69t-209.5 -61.5t-270.5 -26.5q-109 0 -224.5 21.5t-211.5 69.5t-158.5 127t-62.5 196zM299 913q0 -53 36 -102t103.5 -86t162.5 -58.5t214 -21.5q156 0 276.5 32t205.5 71.5t133.5 74.5 t56.5 43q-16 39 -54 100.5t-109 120t-179.5 100.5t-265.5 42q-98 0 -202 -20.5t-187.5 -60.5t-137 -99.5t-53.5 -135.5z" />
<glyph unicode=":" d="M250 96q0 53 38 91t91 38t91 -38t38 -91t-38 -91t-91 -38t-91 38t-38 91zM250 874q0 53 38 91.5t91 38.5t91 -38.5t38 -91.5t-38 -91t-91 -38t-91 38t-38 91z" />
<glyph unicode=";" horiz-adv-x="796" d="M248 113q0 53 39 82.5t90 29.5q29 0 59.5 -14t55 -42t41 -67t16.5 -90q0 -84 -36 -148.5t-80 -108.5t-84 -66.5t-48 -22.5q-4 0 -10 5t-6 16q0 8 27.5 28.5t61.5 51t62.5 73.5t28.5 101q0 18 -16.5 23t-39 7t-47 4t-40.5 13q-35 23 -54.5 46t-19.5 79zM250 874 q0 53 38 91.5t91 38.5t91 -38.5t38 -91.5t-38 -91t-91 -38t-91 38t-38 91z" />
<glyph unicode="?" horiz-adv-x="1138" d="M135 1386v144q29 8 74 15t96 12.5t103.5 8.5t97.5 3q98 0 187 -18.5t159 -63.5t111 -118t41 -183q0 -80 -27 -142.5t-62.5 -108.5t-73.5 -78t-61 -48l-207 -158q-49 -37 -49 -114v-154h-135v154q0 39 2 67.5t11.5 52t26.5 44t48 44.5l215 166q76 57 116 119t40 170 q0 119 -93 177.5t-270 58.5q-102 0 -183 -13.5t-167 -36.5zM328 96q0 53 37.5 91t91.5 38q53 0 91 -38t38 -91t-38 -91t-91 -38t-91 38t-38 91z" />
<glyph unicode="A" horiz-adv-x="1705" d="M33 0l749 1536h140l749 -1536h-155l-269 545h-790l-269 -545h-155zM526 684h650l-324 696z" />
<glyph unicode="B" horiz-adv-x="1857" d="M229 0v1536h899q92 0 171 -30.5t136.5 -84t90.5 -128t33 -163.5q0 -72 -18.5 -127t-44.5 -96t-51.5 -66.5l-39.5 -39.5q29 -18 66.5 -47t72.5 -75t59.5 -108.5t24.5 -148.5q0 -96 -36 -174t-100.5 -133.5t-157.5 -85t-206 -29.5h-899zM369 139h759q78 0 143.5 14.5 t114 48.5t76 87t27.5 133q0 147 -98.5 222t-262.5 75h-759v-580zM369 858h759q61 0 114.5 18.5t92.5 53.5t61.5 85t22.5 115q0 115 -71.5 191t-219.5 76h-759v-539z" />
<glyph unicode="C" horiz-adv-x="1896" d="M164 768q0 197 74.5 347.5t195.5 250.5t270.5 151.5t301.5 51.5q166 0 286.5 -34t206.5 -82t140.5 -98t86.5 -83l-94 -101q-23 23 -69.5 66t-122.5 86t-183.5 75t-250.5 32t-270.5 -45.5t-223.5 -131.5t-152.5 -208.5t-56.5 -276.5q0 -137 51.5 -257t142.5 -210 t216 -142.5t272 -52.5q137 0 245.5 34t189.5 79t135.5 91t80.5 71l97 -102q-29 -27 -89.5 -79.5t-153.5 -103.5t-219 -90t-286 -39q-90 0 -186.5 21.5t-187.5 64.5t-173 108.5t-142 155t-96 202t-36 249.5z" />
<glyph unicode="D" horiz-adv-x="1896" d="M242 0v1536h774q160 0 285.5 -68.5t213 -179t133.5 -248t46 -272.5q0 -129 -46 -265t-133.5 -248t-213 -183.5t-285.5 -71.5h-774zM381 139h635q121 0 220 56.5t170 146.5t109.5 202.5t38.5 223.5q0 98 -35.5 208.5t-104 204t-169 155t-229.5 61.5h-635v-1258z" />
<glyph unicode="E" horiz-adv-x="1744" d="M248 0v1536h1259v-139h-1120v-535h610v-139h-610v-584h1169v-139h-1308z" />
<glyph unicode="F" horiz-adv-x="1705" d="M254 0v1536h1259v-139h-1120v-535h703v-139h-703v-723h-139z" />
<glyph unicode="G" horiz-adv-x="1857" d="M162 770q0 184 68.5 331.5t185 251t272.5 160t332 56.5q129 0 230.5 -28t179 -69.5t135 -90t94.5 -89.5l-90 -100q-29 27 -72 67.5t-108.5 78.5t-155.5 65t-215 27q-172 0 -306 -55.5t-225.5 -146.5t-138.5 -210t-47 -248q0 -133 47 -254t137 -212t221.5 -144.5 t299.5 -53.5q139 0 242.5 31t172 76t102 98.5t33.5 100.5v264h-550v139h690v-401q0 -76 -42 -155t-128 -143.5t-216 -106.5t-304 -42q-184 0 -340 61.5t-267.5 169t-174 254t-62.5 318.5z" />
<glyph unicode="H" horiz-adv-x="2048" d="M352 0v1536h140v-672h1064v672h140v-1536h-140v725h-1064v-725h-140z" />
<glyph unicode="I" d="M309 0v1536h140v-1536h-140z" />
<glyph unicode="J" horiz-adv-x="1669" d="M119 383l119 61q20 -39 56 -96t96.5 -111.5t149.5 -92.5t216 -38q250 0 391 122t141 368v940h139v-940q0 -127 -37.5 -241.5t-118.5 -200.5t-207 -136.5t-300 -50.5q-160 0 -271.5 43t-186.5 106.5t-119 136.5t-68 130z" />
<glyph unicode="K" horiz-adv-x="1705" d="M250 0v1536h139v-940l938 940h195l-564 -565l646 -971h-168l-582 864l-465 -465v-399h-139z" />
<glyph unicode="L" horiz-adv-x="1478" d="M231 0v1536h140v-1397h997v-139h-1137z" />
<glyph unicode="M" horiz-adv-x="2123" d="M303 0v1536h139l619 -1071l618 1071h140v-1536h-140v1262h-4l-614 -1047l-615 1047h-4v-1262h-139z" />
<glyph unicode="N" horiz-adv-x="2009" d="M326 0v1536h139l1073 -1333h4v1333h139v-1536h-139l-1073 1327h-4v-1327h-139z" />
<glyph unicode="O" horiz-adv-x="1972" d="M162 768q0 174 62.5 320.5t172 253t260 167t328.5 60.5t328.5 -60.5t261.5 -167t172 -253t61 -320.5t-62.5 -320.5t-172 -253t-260 -167t-328.5 -60.5t-328.5 60.5t-260 167t-172 253t-62.5 320.5zM301 768q0 -133 49 -253t138.5 -210t216 -144.5t280.5 -54.5t281 54.5 t216 144.5t138 210t49 253q0 131 -49 252t-138 211t-216 144.5t-281 54.5t-280.5 -54.5t-216 -144.5t-138.5 -211t-49 -252z" />
<glyph unicode="P" horiz-adv-x="1781" d="M258 0v1536h817q156 0 256.5 -37t157.5 -97.5t78.5 -139t21.5 -162.5q0 -86 -21.5 -165t-78.5 -139.5t-157.5 -97t-256.5 -36.5h-678v-662h-139zM397 801h678q80 0 148.5 12t119 45t79 91.5t28.5 150.5t-28.5 150.5t-79 90t-119 44t-148.5 12.5h-678v-596z" />
<glyph unicode="Q" horiz-adv-x="2048" d="M201 768q0 174 62.5 320.5t172 253t260 167t328.5 60.5t328.5 -60.5t261 -167t172 -253t61.5 -320.5q0 -98 -26.5 -196.5t-74.5 -187.5t-116.5 -165t-152.5 -131l155 -160l-127 -73l-164 165q-53 -25 -142 -39t-175 -14q-178 0 -328.5 60.5t-260 167t-172 253 t-62.5 320.5zM340 768q0 -133 49 -253t138 -210t216 -144.5t281 -54.5q55 0 106.5 5.5t102.5 21.5l-143 148l131 73l153 -159q158 94 246 244.5t88 328.5q0 131 -49 252t-138 211t-216 144.5t-281 54.5t-281 -54.5t-216 -144.5t-138 -211t-49 -252z" />
<glyph unicode="R" horiz-adv-x="1820" d="M236 0v1536h940q129 0 216 -45t138 -111.5t72.5 -141.5t21.5 -134q0 -135 -47 -221t-112.5 -135.5t-138.5 -69t-122 -23.5l387 -655h-161l-386 655h-669v-655h-139zM375 795h678q74 0 149.5 8t139 38.5t103.5 92t40 170.5q0 92 -34 149.5t-83 89t-102.5 43t-89.5 11.5 h-801v-602z" />
<glyph unicode="S" horiz-adv-x="1705" d="M109 281l96 100q39 -31 89 -78t126 -90t184.5 -75t263.5 -32q119 0 226.5 19.5t188.5 60.5t128 102.5t47 147.5q0 51 -24.5 103.5t-73.5 93.5t-124 67.5t-175 28.5l-352 6q-84 0 -170 17.5t-158 60.5t-117 117t-45 186q0 76 36 156t115 145.5t203.5 108.5t303.5 43 q137 0 242.5 -26.5t182 -62.5t127 -73t80.5 -57l-86 -105q-53 33 -106 65.5t-116.5 59.5t-140.5 43.5t-173 16.5q-143 0 -243.5 -32t-164 -79t-92.5 -102.5t-29 -102.5q0 -70 30 -116t79 -73.5t111.5 -39t130.5 -11.5l360 -6q127 -2 225.5 -37.5t166 -95t102 -136.5 t34.5 -163q0 -82 -36.5 -166t-122.5 -151.5t-225.5 -109.5t-344.5 -42q-174 0 -299 35t-214 84t-147 102.5t-99 92.5z" />
<glyph unicode="T" horiz-adv-x="1554" d="M125 1397v139h1302v-139h-581v-1397h-139v1397h-582z" />
<glyph unicode="U" horiz-adv-x="1972" d="M307 555v981h139v-981q0 -104 32 -187t97.5 -141.5t167 -89.5t242.5 -31t242.5 31t167 89.5t97.5 141.5t32 187v981h139v-981q0 -145 -47 -256t-134 -184.5t-213 -110.5t-284 -37t-284 37t-214 110.5t-134 184.5t-46 256z" />
<glyph unicode="V" horiz-adv-x="1705" d="M45 1536h152l655 -1360l655 1360h152l-737 -1536h-140z" />
<glyph unicode="W" horiz-adv-x="2048" d="M43 1536h147l414 -1298h4l344 1298h140l352 -1298h4l410 1298h147l-494 -1536h-139l-348 1255h-4l-342 -1255h-139z" />
<glyph unicode="X" horiz-adv-x="1593" d="M43 0l664 831l-568 705h180l478 -594l473 594h180l-565 -705l663 -831h-180l-571 717l-574 -717h-180z" />
<glyph unicode="Y" horiz-adv-x="1593" d="M37 1536h180l580 -731l579 731h180l-690 -866v-670h-139v670z" />
<glyph unicode="Z" horiz-adv-x="1402" d="M33 147l1134 1250h-1050v139h1163l80 -145l-1141 -1252h1151v-139h-1261z" />
<glyph unicode="[" horiz-adv-x="569" d="M125 0v1536h319v-92h-180v-1352h180v-92h-319z" />
<glyph unicode="]" horiz-adv-x="569" d="M125 0v92h180v1352h-180v92h319v-1536h-319z" />
<glyph unicode="`" horiz-adv-x="720" d="M178 1413h223l140 -225h-160z" />
<glyph unicode="a" horiz-adv-x="1402" d="M43 0l600 1061h119l598 -1061h-139l-154 264h-731l-154 -264h-139zM416 403h573l-287 519z" />
<glyph unicode="b" horiz-adv-x="1517" d="M225 0v1061h729q66 0 119 -22.5t90 -61.5t57.5 -90t20.5 -109q0 -43 -10 -77.5t-24.5 -61.5t-29 -43t-22.5 -23q27 -18 51.5 -41.5t43 -54.5t29.5 -70.5t11 -93.5q0 -94 -32.5 -154.5t-86 -96t-121 -49t-137.5 -13.5h-688zM365 139h548q45 0 88 5.5t77 22.5t53.5 52 t19.5 94q0 55 -21.5 89t-55.5 54.5t-76 28t-85 7.5h-548v-353zM365 631h548q37 0 71 5t60.5 20.5t42 45t15.5 76.5q0 45 -15.5 74t-41 44t-60.5 20.5t-72 5.5h-548v-291z" />
<glyph unicode="c" horiz-adv-x="1517" d="M164 532q0 141 58.5 246t149.5 175.5t201.5 105.5t217.5 35q119 0 214 -26t164.5 -59.5t114.5 -68.5t68 -53l-78 -117q-35 27 -79 59.5t-102.5 60.5t-132 46t-163.5 18q-119 0 -211 -35.5t-154.5 -95t-95.5 -137.5t-33 -160t33 -157.5t97.5 -134t161.5 -93.5t228 -35 q100 0 174 14.5t127.5 37t93 49t74.5 49.5l56 -127q-27 -20 -71 -48t-108.5 -53.5t-150.5 -43t-193 -17.5q-160 0 -282.5 44t-206.5 121t-128 180.5t-44 219.5z" />
<glyph unicode="d" horiz-adv-x="1554" d="M221 0v1061h594q129 0 226.5 -42t162 -115t97 -169t32.5 -205t-32.5 -205t-97 -168.5t-162 -114.5t-226.5 -42h-594zM360 139h455q86 0 156.5 29t120 80t76 123.5t26.5 158.5t-26.5 159t-76 124t-118 80t-154.5 29h-459v-783z" />
<glyph unicode="e" horiz-adv-x="1402" d="M225 0v1061h930v-139h-790v-310h452v-139h-452v-334h813v-139h-953z" />
<glyph unicode="f" horiz-adv-x="1366" d="M225 0v1061h916v-139h-776v-301h479v-140h-479v-481h-140z" />
<glyph unicode="g" horiz-adv-x="1517" d="M170 532q0 125 51 228.5t139.5 177.5t207 115t251.5 41q102 0 183 -19.5t141.5 -47.5t102.5 -56.5t67 -44.5l-76 -117q-33 20 -72 46t-89 48.5t-113.5 36.5t-143.5 14q-109 0 -202 -30.5t-161.5 -86t-107.5 -133t-39 -172.5q0 -86 33 -163.5t96.5 -136t156.5 -92.5 t214 -34q76 0 138.5 12.5t112.5 31t87 40t61 39.5v209h-348v140h488v-412q-12 -10 -52.5 -42t-109 -66.5t-165.5 -62.5t-220 -28q-145 0 -261 44t-199 121t-127 180.5t-44 219.5z" />
<glyph unicode="h" horiz-adv-x="1630" d="M311 0v1061h140v-447h729v447h139v-1061h-139v475h-729v-475h-140z" />
<glyph unicode="i" d="M309 0v1061h140v-1061h-140z" />
<glyph unicode="j" horiz-adv-x="1327" d="M98 252l115 78q14 -31 43 -70t73 -72.5t102 -57.5t136 -24q92 0 161 25t113 63.5t65.5 87t21.5 95.5v684h139v-684q0 -61 -25.5 -133t-84 -133.5t-153.5 -102.5t-235 -41q-111 0 -193.5 30t-139 74t-90 93t-48.5 88z" />
<glyph unicode="k" horiz-adv-x="1366" d="M217 0v1061h139v-555l607 555h202l-424 -389l488 -672h-176l-414 575l-283 -260v-315h-139z" />
<glyph unicode="l" horiz-adv-x="1175" d="M205 0v1061h139v-922h688v-139h-827z" />
<glyph unicode="m" horiz-adv-x="1781" d="M305 0v1061h139l447 -694l446 694h140v-1061h-140v834h-4l-442 -695l-442 695h-5v-834h-139z" />
<glyph unicode="n" horiz-adv-x="1630" d="M305 0v1061h139l740 -866v866h139v-1061h-139l-740 868v-868h-139z" />
<glyph unicode="o" horiz-adv-x="1630" d="M176 530q0 127 49 230.5t135 177.5t203 115t252 41t252 -41t203 -115t135 -177.5t49 -230.5t-49 -230t-135 -177t-203 -115t-252 -41t-252 41t-203 115t-135 177t-49 230zM315 530q0 -84 35 -160.5t100.5 -135t157.5 -93.5t207 -35t207 35t157.5 93.5t100.5 135t35 160.5 t-35 161t-100.5 135.5t-157.5 93t-207 34.5t-207 -34.5t-157.5 -93t-100.5 -135.5t-35 -161z" />
<glyph unicode="p" horiz-adv-x="1441" d="M229 0v1061h650q61 0 127.5 -14.5t122 -51.5t90 -101.5t34.5 -164.5q0 -102 -34.5 -165.5t-90 -99.5t-122 -49.5t-127.5 -13.5h-510v-401h-140zM369 541h510q125 0 180 45t55 143q0 100 -55 146.5t-180 46.5h-510v-381z" />
<glyph unicode="q" horiz-adv-x="1669" d="M193 530q0 127 49 230.5t135 177.5t202.5 115t254.5 41q137 0 253.5 -41t202.5 -115t135.5 -177.5t49.5 -230.5q0 -156 -73 -276.5t-188 -194.5l121 -129l-135 -57l-121 127q-55 -14 -118 -25q-31 -4 -62 -6t-65 -2q-137 0 -254 41t-203 115t-135 177t-49 230zM332 530 q0 -84 34.5 -160.5t100 -135t159 -93.5t208.5 -35q35 0 69.5 1.5t57.5 7.5l-95 106l138 60l110 -115q102 61 161.5 157.5t59.5 206.5q0 84 -34.5 161t-100 135.5t-159 93t-207.5 34.5q-115 0 -208.5 -34.5t-159 -93t-100 -135.5t-34.5 -161z" />
<glyph unicode="r" horiz-adv-x="1517" d="M238 0v1061h657q72 0 144.5 -15.5t130 -52.5t93 -97t35.5 -151q0 -74 -28.5 -129t-71.5 -93t-93 -58.5t-93 -24.5l309 -440h-174l-301 430h-469v-430h-139zM377 569h518q51 0 98 7.5t84 28t59.5 54t22.5 86.5q0 57 -24.5 92t-63.5 53.5t-85 25t-91 6.5h-518v-353z" />
<glyph unicode="s" horiz-adv-x="1402" d="M127 156l68 127q31 -23 77.5 -52.5t113.5 -57.5t156 -47.5t206 -19.5q203 0 295 54.5t92 140.5q0 49 -21.5 82t-56.5 53.5t-79 29.5t-89 11l-318 8q-47 0 -110.5 14.5t-119.5 48.5t-95 90t-39 142q0 68 30.5 125.5t90 99.5t144.5 65.5t194 23.5q123 0 218 -19.5 t163.5 -45t109.5 -50.5t55 -33l-63 -125q-104 59 -220 96t-235 37q-98 0 -164.5 -14t-107.5 -37.5t-58.5 -55.5t-17.5 -65q0 -45 18.5 -74.5t48 -48t68.5 -26.5t82 -8l295 -9q76 -2 150.5 -20t133 -56t95.5 -96.5t37 -138.5q0 -68 -25.5 -128t-86 -107t-160 -75t-244.5 -28 q-133 0 -235.5 21.5t-180.5 52.5t-131 62.5t-84 52.5z" />
<glyph unicode="t" horiz-adv-x="1214" d="M111 922v139h991v-139h-426v-922h-139v922h-426z" />
<glyph unicode="u" horiz-adv-x="1630" d="M303 408v653h139v-653q0 -68 19.5 -124.5t63.5 -95t115 -60.5t175 -22t175 22t115 61.5t63.5 95t19.5 123.5v653h139v-653q0 -127 -42 -212t-112.5 -136.5t-164 -72t-193.5 -20.5t-193.5 20.5t-164 72t-112.5 136.5t-42 212z" />
<glyph unicode="v" horiz-adv-x="1366" d="M43 1061h160l479 -901l479 901h160l-569 -1061h-140z" />
<glyph unicode="w" horiz-adv-x="1705" d="M35 1061h151l320 -860h4l289 860h127l278 -860h4l312 860h151l-395 -1061h-139l-275 848h-4l-280 -848h-140z" />
<glyph unicode="x" horiz-adv-x="1327" d="M29 0l538 567l-469 494h193l373 -395l370 395h193l-469 -494l538 -567h-192l-440 467l-443 -467h-192z" />
<glyph unicode="y" horiz-adv-x="1175" d="M35 1061h182l369 -408l368 408h185l-484 -535v-526h-139v526z" />
<glyph unicode="z" horiz-adv-x="1099" d="M39 127l813 795h-760v139h871l79 -123l-813 -799h830v-139h-938z" />
<glyph unicode="{" horiz-adv-x="1024" d="M233 571v50q43 14 84 36.5t73 55t50.5 74.5t18.5 94q0 41 -11.5 90t-21.5 102q-10 47 -17.5 94t-7.5 103q0 74 39 136t100.5 108.5t138.5 73t155 30.5v-51q-57 -12 -98.5 -41t-68 -68t-40 -83t-13.5 -87q0 -41 4.5 -83t10.5 -91q4 -37 9 -85t5 -77q0 -86 -35 -146.5 t-85 -101t-104 -66.5t-93 -42q39 -16 93 -44t104 -70t85 -101t35 -141q0 -29 -5 -77t-9 -85q-6 -49 -10.5 -91t-4.5 -83q0 -43 13.5 -87t40 -83t67.5 -67.5t99 -41.5v-51q-78 2 -155 29.5t-138.5 74t-100.5 108.5t-39 136q0 55 7.5 102.5t17.5 94.5q10 53 21.5 102t11.5 90 q0 47 -18.5 89t-50.5 75t-73 57.5t-84 38.5z" />
<glyph unicode="}" horiz-adv-x="1024" d="M195 -375q57 12 98 41t67.5 68t40 83t13.5 87q0 41 -4 83t-11 91q-4 37 -9 85t-5 77q0 82 35 141t85 101t104.5 70t92.5 44q-39 16 -93 42t-104 66.5t-85 101t-35 146.5q0 29 5 77t9 85q6 49 10.5 91t4.5 83q0 43 -13.5 87t-40 83t-67.5 67.5t-98 41.5v51 q76 -4 153.5 -30.5t139 -73t100.5 -109t39 -135.5q0 -55 -7.5 -102.5t-17.5 -94.5q-10 -53 -21.5 -102t-11.5 -90q0 -51 18.5 -93.5t50.5 -75t73 -55t84 -36.5v-50q-43 -14 -84 -38.5t-73 -57.5t-50.5 -75t-18.5 -89q0 -41 11.5 -90t21.5 -102q10 -47 17.5 -94.5t7.5 -102.5 q0 -74 -39 -136t-100.5 -108.5t-139.5 -74t-153 -29.5v51z" />
<glyph unicode="&#xa0;" />
<glyph unicode="&#xa2;" horiz-adv-x="1820" d="M315 670q0 104 32 187t83 145.5t115.5 105.5t128 70.5t121 40t96.5 12.5v188h110v-188q170 -16 293 -69.5t211 -137.5l-78 -117q-47 45 -101 80t-111.5 58.5t-112.5 35t-101 11.5v-844q86 6 142.5 15t102.5 24.5t91 40t107 65.5l55 -127q-201 -152 -498 -157v-191h-110 v191q-45 2 -104.5 17t-123 43t-126 72t-111.5 105.5t-80 141t-31 182.5zM455 664q0 -115 50 -195t119.5 -129t143.5 -70.5t123 -21.5v844q-43 0 -117 -19.5t-144.5 -69t-122.5 -132.5t-52 -207z" />
<glyph unicode="&#xa3;" horiz-adv-x="1820" d="M305 0v139h207v486h-207v139h207v141q0 86 26.5 169t89 148.5t167 105.5t262.5 40q111 0 195.5 -34t143 -90t89.5 -126.5t31 -144.5h-154q0 45 -21.5 91t-64.5 83t-106.5 59.5t-145.5 22.5q-96 0 -163.5 -27.5t-110.5 -74t-63.5 -103.5t-20.5 -119v-141h403v-139h-403 v-486h804v-139h-1165z" />
<glyph unicode="&#xa5;" horiz-adv-x="1820" d="M160 1335h176l577 -637l570 637h176l-404 -450h189v-113h-287l-174 -192h461v-113h-461v-467h-139v467h-463v113h463l-178 192h-285v113h186z" />
<glyph unicode="&#xa8;" horiz-adv-x="720" d="M84 1188v188h188v-188h-188zM446 1188v188h189v-188h-189z" />
<glyph unicode="&#xab;" horiz-adv-x="1062" d="M109 532l276 400h147l-235 -400l235 -395h-147zM528 532l277 400h147l-235 -400l235 -395h-147z" />
<glyph unicode="&#xad;" horiz-adv-x="681" d="M55 467v119h570v-119h-570z" />
<glyph unicode="&#xb4;" horiz-adv-x="720" d="M178 1188l139 225h224l-203 -225h-160z" />
<glyph unicode="&#xbb;" horiz-adv-x="1062" d="M109 137l235 395l-235 400h147l276 -400l-276 -395h-147zM528 137l236 395l-236 400h148l276 -400l-276 -395h-148z" />
<glyph unicode="&#xbc;" horiz-adv-x="1972" d="M276 -70l1053 1475h113l-1053 -1475h-113zM367 532v803h102v-803h-102zM862 317l635 486h102v-492h195v-102h-195v-209h-102v209h-586zM1028 311h469v363l-469 -359v-4z" />
<glyph unicode="&#xbd;" horiz-adv-x="1972" d="M215 -70l1053 1475h112l-1052 -1475h-113zM303 532v803h103v-803h-103zM1067 0q0 43 8 107.5t40 130t95.5 120t173.5 78.5l125 27q72 16 118 41.5t46 81.5q0 20 -13 45.5t-41 47t-73 36t-108 14.5q-57 0 -101.5 -10t-79 -27.5t-64.5 -38t-60 -41.5l-56 90 q100 78 193.5 103.5t154.5 25.5q49 0 109.5 -14t114 -45t90.5 -77t37 -107q0 -49 -17.5 -86t-45 -63.5t-62.5 -42t-70 -23.5l-151 -31q-68 -14 -113 -42t-72.5 -60.5t-40 -68.5t-14.5 -69h577v-102h-700z" />
<glyph unicode="&#xbe;" horiz-adv-x="1972" d="M45 657l57 88q20 -14 54 -35.5t83.5 -41t111 -33.5t136.5 -14q70 0 119 15t81 37.5t46.5 50.5t14.5 52q0 41 -25 68.5t-63.5 44t-86 24t-90.5 7.5h-92v102h109q111 0 158 34t47 81q0 27 -17.5 50t-48.5 40.5t-71 28t-85 10.5q-76 0 -148.5 -23.5t-139.5 -56.5l-50 92 q76 37 159 63.5t169 26.5t150.5 -20.5t107.5 -54t64.5 -75.5t21.5 -85q0 -35 -10 -59.5t-24.5 -44t-30 -33t-27.5 -23.5q20 -14 44 -31.5t44.5 -40t33.5 -53.5t13 -70q0 -45 -21.5 -91t-66.5 -84t-112.5 -61.5t-161.5 -23.5q-104 0 -182 17.5t-133.5 41t-89.5 46t-48 34.5z M489 -70l1053 1475h113l-1053 -1475h-113zM1075 317l635 486h102v-492h195v-102h-195v-209h-102v209h-586zM1241 311h469v363l-469 -359v-4z" />
<glyph unicode="&#xc0;" horiz-adv-x="1705" d="M33 0l749 1536h140l749 -1536h-155l-269 545h-790l-269 -545h-155zM526 684h650l-324 696zM631 1888h223l139 -225h-159z" />
<glyph unicode="&#xc1;" horiz-adv-x="1705" d="M33 0l749 1536h140l749 -1536h-155l-269 545h-790l-269 -545h-155zM526 684h650l-324 696zM743 1663l140 225h223l-203 -225h-160z" />
<glyph unicode="&#xc2;" horiz-adv-x="1705" d="M33 0l749 1536h140l749 -1536h-155l-269 545h-790l-269 -545h-155zM526 684h650l-324 696zM602 1663l154 219h237l154 -219h-156l-117 117l-116 -117h-156z" />
<glyph unicode="&#xc3;" horiz-adv-x="1705" d="M33 0l749 1536h140l749 -1536h-155l-269 545h-790l-269 -545h-155zM526 684h650l-324 696zM532 1663q0 31 6.5 68.5t25 70.5t53 55.5t92.5 22.5q45 0 87 -10t83 -23q39 -14 74.5 -24.5t64.5 -10.5q31 0 53.5 24t22.5 52h123q0 -35 -6.5 -72.5t-24.5 -70.5 q-20 -31 -54 -51.5t-94 -20.5q-43 0 -88 10.5t-86 22.5q-41 10 -78.5 20.5t-68.5 10.5q-23 0 -43.5 -19.5t-20.5 -54.5h-121z" />
<glyph unicode="&#xc4;" horiz-adv-x="1705" d="M33 0l749 1536h140l749 -1536h-155l-269 545h-790l-269 -545h-155zM526 684h650l-324 696zM598 1663v188h188v-188h-188zM961 1663v188h188v-188h-188z" />
<glyph unicode="&#xc5;" horiz-adv-x="1705" d="M33 0l749 1536h140l749 -1536h-155l-269 545h-790l-269 -545h-155zM526 684h650l-324 696zM641 1896q0 49 18.5 92.5t51 75t74.5 49t89 17.5t89.5 -17.5t75 -49t51 -75t18.5 -92.5t-18.5 -92t-51 -74.5t-74.5 -49t-90 -17.5q-47 0 -89 17.5t-74.5 49t-51 74.5t-18.5 92z M754 1896q0 -49 34.5 -84.5t85.5 -35.5q47 0 84 33.5t37 86.5q0 47 -34.5 84t-86.5 37q-49 0 -84.5 -34.5t-35.5 -86.5z" />
<glyph unicode="&#xc7;" horiz-adv-x="1896" d="M164 768q0 197 74.5 347.5t195.5 250.5t270.5 151.5t301.5 51.5q166 0 286.5 -34t206.5 -82t140.5 -98t86.5 -83l-94 -101q-23 23 -69.5 66t-122.5 86t-183.5 75t-250.5 32t-270.5 -45.5t-223.5 -131.5t-152.5 -208.5t-56.5 -276.5q0 -137 51.5 -257t142.5 -210 t216 -142.5t272 -52.5q137 0 245.5 34t189.5 79t135.5 91t80.5 71l97 -102q-29 -27 -85.5 -76t-142.5 -100.5t-200.5 -91.5t-260.5 -46l-88 -133q18 2 37 3t37 1q92 0 137 -47t45 -108q0 -45 -20.5 -80t-55 -59.5t-81.5 -37t-101 -12.5q-82 0 -149.5 18.5t-99.5 28.5l45 103 q25 -8 79 -23.5t107 -15.5q35 0 66.5 18.5t31.5 52.5q0 35 -26.5 53.5t-59.5 18.5q-23 0 -46 -5t-46 -11l-45 59l119 178q-133 8 -269.5 61.5t-247 152t-180 244.5t-69.5 343z" />
<glyph unicode="&#xc8;" horiz-adv-x="1744" d="M248 0v1536h1259v-139h-1120v-535h610v-139h-610v-584h1169v-139h-1308zM649 1888h223l140 -225h-160z" />
<glyph unicode="&#xc9;" horiz-adv-x="1744" d="M248 0v1536h1259v-139h-1120v-535h610v-139h-610v-584h1169v-139h-1308zM711 1663l139 225h223l-203 -225h-159z" />
<glyph unicode="&#xca;" horiz-adv-x="1744" d="M248 0v1536h1259v-139h-1120v-535h610v-139h-610v-584h1169v-139h-1308zM559 1663l154 219h237l154 -219h-156l-117 117l-116 -117h-156z" />
<glyph unicode="&#xcb;" horiz-adv-x="1744" d="M248 0v1536h1259v-139h-1120v-535h610v-139h-610v-584h1169v-139h-1308zM555 1663v188h188v-188h-188zM918 1663v188h188v-188h-188z" />
<glyph unicode="&#xcc;" d="M176 1888h223l140 -225h-160zM309 0v1536h140v-1536h-140z" />
<glyph unicode="&#xcd;" d="M268 1663l140 225h223l-203 -225h-160zM309 0v1536h140v-1536h-140z" />
<glyph unicode="&#xce;" d="M127 1663l154 219h237l154 -219h-156l-117 117l-116 -117h-156zM309 0v1536h140v-1536h-140z" />
<glyph unicode="&#xcf;" d="M123 1663v188h188v-188h-188zM309 0v1536h140v-1536h-140zM485 1663v188h189v-188h-189z" />
<glyph unicode="&#xd1;" horiz-adv-x="2009" d="M326 0v1536h139l1073 -1333h4v1333h139v-1536h-139l-1073 1327h-4v-1327h-139zM684 1663q0 31 6 68.5t24.5 70.5t53.5 55.5t92 22.5q45 0 87 -10t83 -23q39 -14 75 -24.5t64 -10.5q31 0 53.5 24t22.5 52h123q0 -35 -6 -72.5t-25 -70.5q-20 -31 -54 -51.5t-93 -20.5 q-43 0 -88 10.5t-86 22.5q-41 10 -79 20.5t-69 10.5q-23 0 -43 -19.5t-20 -54.5h-121z" />
<glyph unicode="&#xd2;" horiz-adv-x="1972" d="M162 768q0 174 62.5 320.5t172 253t260 167t328.5 60.5t328.5 -60.5t261.5 -167t172 -253t61 -320.5t-62.5 -320.5t-172 -253t-260 -167t-328.5 -60.5t-328.5 60.5t-260 167t-172 253t-62.5 320.5zM301 768q0 -133 49 -253t138.5 -210t216 -144.5t280.5 -54.5t281 54.5 t216 144.5t138 210t49 253q0 131 -49 252t-138 211t-216 144.5t-281 54.5t-280.5 -54.5t-216 -144.5t-138.5 -211t-49 -252zM784 1888h224l139 -225h-160z" />
<glyph unicode="&#xd3;" horiz-adv-x="1972" d="M162 768q0 174 62.5 320.5t172 253t260 167t328.5 60.5t328.5 -60.5t261.5 -167t172 -253t61 -320.5t-62.5 -320.5t-172 -253t-260 -167t-328.5 -60.5t-328.5 60.5t-260 167t-172 253t-62.5 320.5zM301 768q0 -133 49 -253t138.5 -210t216 -144.5t280.5 -54.5t281 54.5 t216 144.5t138 210t49 253q0 131 -49 252t-138 211t-216 144.5t-281 54.5t-280.5 -54.5t-216 -144.5t-138.5 -211t-49 -252zM877 1663l139 225h223l-203 -225h-159z" />
<glyph unicode="&#xd4;" horiz-adv-x="1972" d="M162 768q0 174 62.5 320.5t172 253t260 167t328.5 60.5t328.5 -60.5t261.5 -167t172 -253t61 -320.5t-62.5 -320.5t-172 -253t-260 -167t-328.5 -60.5t-328.5 60.5t-260 167t-172 253t-62.5 320.5zM301 768q0 -133 49 -253t138.5 -210t216 -144.5t280.5 -54.5t281 54.5 t216 144.5t138 210t49 253q0 131 -49 252t-138 211t-216 144.5t-281 54.5t-280.5 -54.5t-216 -144.5t-138.5 -211t-49 -252zM735 1663l154 219h237l154 -219h-156l-116 117l-117 -117h-156z" />
<glyph unicode="&#xd5;" horiz-adv-x="1972" d="M162 768q0 174 62.5 320.5t172 253t260 167t328.5 60.5t328.5 -60.5t261.5 -167t172 -253t61 -320.5t-62.5 -320.5t-172 -253t-260 -167t-328.5 -60.5t-328.5 60.5t-260 167t-172 253t-62.5 320.5zM301 768q0 -133 49 -253t138.5 -210t216 -144.5t280.5 -54.5t281 54.5 t216 144.5t138 210t49 253q0 131 -49 252t-138 211t-216 144.5t-281 54.5t-280.5 -54.5t-216 -144.5t-138.5 -211t-49 -252zM686 1663q0 31 6 68.5t24.5 70.5t53.5 55.5t92 22.5q45 0 87 -10t83 -23q39 -14 75 -24.5t64 -10.5q31 0 53.5 24t22.5 52h123q0 -35 -6 -72.5 t-25 -70.5q-20 -31 -54 -51.5t-93 -20.5q-43 0 -88 10.5t-86 22.5q-41 10 -79 20.5t-69 10.5q-23 0 -43 -19.5t-20 -54.5h-121z" />
<glyph unicode="&#xd6;" horiz-adv-x="1972" d="M162 768q0 174 62.5 320.5t172 253t260 167t328.5 60.5t328.5 -60.5t261.5 -167t172 -253t61 -320.5t-62.5 -320.5t-172 -253t-260 -167t-328.5 -60.5t-328.5 60.5t-260 167t-172 253t-62.5 320.5zM301 768q0 -133 49 -253t138.5 -210t216 -144.5t280.5 -54.5t281 54.5 t216 144.5t138 210t49 253q0 131 -49 252t-138 211t-216 144.5t-281 54.5t-280.5 -54.5t-216 -144.5t-138.5 -211t-49 -252zM731 1663v188h189v-188h-189zM1094 1663v188h188v-188h-188z" />
<glyph unicode="&#xd9;" horiz-adv-x="1972" d="M307 555v981h139v-981q0 -104 32 -187t97.5 -141.5t167 -89.5t242.5 -31t242.5 31t167 89.5t97.5 141.5t32 187v981h139v-981q0 -145 -47 -256t-134 -184.5t-213 -110.5t-284 -37t-284 37t-214 110.5t-134 184.5t-46 256zM764 1888h223l139 -225h-159z" />
<glyph unicode="&#xda;" horiz-adv-x="1972" d="M307 555v981h139v-981q0 -104 32 -187t97.5 -141.5t167 -89.5t242.5 -31t242.5 31t167 89.5t97.5 141.5t32 187v981h139v-981q0 -145 -47 -256t-134 -184.5t-213 -110.5t-284 -37t-284 37t-214 110.5t-134 184.5t-46 256zM877 1663l139 225h223l-203 -225h-159z" />
<glyph unicode="&#xdb;" horiz-adv-x="1972" d="M307 555v981h139v-981q0 -104 32 -187t97.5 -141.5t167 -89.5t242.5 -31t242.5 31t167 89.5t97.5 141.5t32 187v981h139v-981q0 -145 -47 -256t-134 -184.5t-213 -110.5t-284 -37t-284 37t-214 110.5t-134 184.5t-46 256zM735 1663l154 219h237l154 -219h-156l-116 117 l-117 -117h-156z" />
<glyph unicode="&#xdc;" horiz-adv-x="1972" d="M307 555v981h139v-981q0 -104 32 -187t97.5 -141.5t167 -89.5t242.5 -31t242.5 31t167 89.5t97.5 141.5t32 187v981h139v-981q0 -145 -47 -256t-134 -184.5t-213 -110.5t-284 -37t-284 37t-214 110.5t-134 184.5t-46 256zM731 1663v188h189v-188h-189zM1094 1663v188h188 v-188h-188z" />
<glyph unicode="&#xdd;" horiz-adv-x="1593" d="M37 1536h180l580 -731l579 731h180l-690 -866v-670h-139v670zM635 1663l139 225h223l-202 -225h-160z" />
<glyph unicode="&#xe0;" horiz-adv-x="1402" d="M43 0l600 1061h119l598 -1061h-139l-154 264h-731l-154 -264h-139zM416 403h573l-287 519zM459 1413h223l139 -225h-159z" />
<glyph unicode="&#xe1;" horiz-adv-x="1402" d="M43 0l600 1061h119l598 -1061h-139l-154 264h-731l-154 -264h-139zM416 403h573l-287 519zM582 1188l139 225h223l-203 -225h-159z" />
<glyph unicode="&#xe2;" horiz-adv-x="1402" d="M43 0l600 1061h119l598 -1061h-139l-154 264h-731l-154 -264h-139zM416 403h573l-287 519zM430 1188l154 219h237l154 -219h-156l-117 117l-116 -117h-156z" />
<glyph unicode="&#xe3;" horiz-adv-x="1402" d="M43 0l600 1061h119l598 -1061h-139l-154 264h-731l-154 -264h-139zM360 1188q0 31 6.5 68.5t25 70.5t53 55.5t92.5 22.5q45 0 87 -10.5t83 -22.5q39 -14 74.5 -24.5t64.5 -10.5q31 0 53.5 23.5t22.5 52.5h122q0 -35 -6 -72.5t-24 -70.5q-20 -31 -54 -51.5t-94 -20.5 q-43 0 -88 10.5t-86 22.5q-41 10 -79 20.5t-68 10.5q-23 0 -43.5 -19.5t-20.5 -54.5h-121zM416 403h573l-287 519z" />
<glyph unicode="&#xe4;" horiz-adv-x="1402" d="M43 0l600 1061h119l598 -1061h-139l-154 264h-731l-154 -264h-139zM416 403h573l-287 519zM426 1188v188h188v-188h-188zM788 1188v188h189v-188h-189z" />
<glyph unicode="&#xe5;" horiz-adv-x="1402" d="M43 0l600 1061h119l598 -1061h-139l-154 264h-731l-154 -264h-139zM416 403h573l-287 519zM479 1421q0 49 18.5 92t51.5 75t75 49.5t89 17.5t89 -17.5t74.5 -49.5t51 -75t18.5 -92t-18.5 -92t-51 -74.5t-74.5 -49t-89 -17.5t-89 17.5t-75 49t-51.5 74.5t-18.5 92z M592 1421q0 -49 35 -85t86 -36q47 0 84 34t37 87q0 47 -35 84t-86 37q-49 0 -85 -34.5t-36 -86.5z" />
<glyph unicode="&#xe7;" horiz-adv-x="1517" d="M164 532q0 141 58.5 246t149.5 175.5t201.5 105.5t217.5 35q119 0 214 -26t164.5 -59.5t114.5 -68.5t68 -53l-78 -117q-35 27 -79 59.5t-102.5 60.5t-132 46t-163.5 18q-119 0 -211 -35.5t-154.5 -95t-95.5 -137.5t-33 -160t33 -157.5t97.5 -134t161.5 -93.5t228 -35 q100 0 174 14.5t127.5 37t93 49t74.5 49.5l56 -127q-25 -20 -67 -48t-102.5 -53.5t-139 -43t-179.5 -19.5l-88 -112q18 2 36.5 3t37.5 1q92 0 137 -47.5t45 -108.5q0 -41 -20.5 -71.5t-55 -52t-82 -33t-100.5 -11.5q-82 0 -149.5 18.5t-100.5 28.5l45 103q25 -8 79 -23.5 t108 -15.5q35 0 66.5 13t31.5 38q0 35 -26.5 53.5t-59.5 18.5q-23 0 -46.5 -5.5t-45.5 -11.5l-45 60l118 157q-125 8 -231 57.5t-184 125t-122 174t-44 208.5z" />
<glyph unicode="&#xe8;" horiz-adv-x="1402" d="M225 0v1061h930v-139h-790v-310h452v-139h-452v-334h813v-139h-953zM459 1413h223l139 -225h-159z" />
<glyph unicode="&#xe9;" horiz-adv-x="1402" d="M225 0v1061h930v-139h-790v-310h452v-139h-452v-334h813v-139h-953zM561 1188l139 225h224l-203 -225h-160z" />
<glyph unicode="&#xea;" horiz-adv-x="1402" d="M225 0v1061h930v-139h-790v-310h452v-139h-452v-334h813v-139h-953zM379 1188l153 219h238l154 -219h-156l-117 117l-116 -117h-156z" />
<glyph unicode="&#xeb;" horiz-adv-x="1402" d="M225 0v1061h930v-139h-790v-310h452v-139h-452v-334h813v-139h-953zM406 1188v188h188v-188h-188zM768 1188v188h188v-188h-188z" />
<glyph unicode="&#xec;" d="M156 1413h223l139 -225h-160zM309 0v1061h140v-1061h-140z" />
<glyph unicode="&#xed;" d="M258 1188l139 225h224l-203 -225h-160zM309 0v1061h140v-1061h-140z" />
<glyph unicode="&#xee;" d="M106 1188l154 219h238l153 -219h-155l-117 117l-117 -117h-156zM309 0v1061h140v-1061h-140z" />
<glyph unicode="&#xef;" d="M123 1188v188h188v-188h-188zM309 0v1061h140v-1061h-140zM485 1188v188h189v-188h-189z" />
<glyph unicode="&#xf1;" horiz-adv-x="1630" d="M305 0v1061h139l740 -866v866h139v-1061h-139l-740 868v-868h-139zM494 1188q0 31 6 68.5t24.5 70.5t53 55.5t92.5 22.5q45 0 87 -10.5t83 -22.5q39 -14 74.5 -24.5t64.5 -10.5q31 0 53.5 23.5t22.5 52.5h123q0 -35 -6.5 -72.5t-24.5 -70.5q-20 -31 -54 -51.5t-94 -20.5 q-43 0 -88 10.5t-86 22.5q-41 10 -78.5 20.5t-68.5 10.5q-23 0 -43.5 -19.5t-20.5 -54.5h-120z" />
<glyph unicode="&#xf2;" horiz-adv-x="1630" d="M176 530q0 127 49 230.5t135 177.5t203 115t252 41t252 -41t203 -115t135 -177.5t49 -230.5t-49 -230t-135 -177t-203 -115t-252 -41t-252 41t-203 115t-135 177t-49 230zM315 530q0 -84 35 -160.5t100.5 -135t157.5 -93.5t207 -35t207 35t157.5 93.5t100.5 135t35 160.5 t-35 161t-100.5 135.5t-157.5 93t-207 34.5t-207 -34.5t-157.5 -93t-100.5 -135.5t-35 -161zM612 1413h224l139 -225h-160z" />
<glyph unicode="&#xf3;" horiz-adv-x="1630" d="M176 530q0 127 49 230.5t135 177.5t203 115t252 41t252 -41t203 -115t135 -177.5t49 -230.5t-49 -230t-135 -177t-203 -115t-252 -41t-252 41t-203 115t-135 177t-49 230zM315 530q0 -84 35 -160.5t100.5 -135t157.5 -93.5t207 -35t207 35t157.5 93.5t100.5 135t35 160.5 t-35 161t-100.5 135.5t-157.5 93t-207 34.5t-207 -34.5t-157.5 -93t-100.5 -135.5t-35 -161zM653 1188l140 225h223l-203 -225h-160z" />
<glyph unicode="&#xf4;" horiz-adv-x="1630" d="M176 530q0 127 49 230.5t135 177.5t203 115t252 41t252 -41t203 -115t135 -177.5t49 -230.5t-49 -230t-135 -177t-203 -115t-252 -41t-252 41t-203 115t-135 177t-49 230zM315 530q0 -84 35 -160.5t100.5 -135t157.5 -93.5t207 -35t207 35t157.5 93.5t100.5 135t35 160.5 t-35 161t-100.5 135.5t-157.5 93t-207 34.5t-207 -34.5t-157.5 -93t-100.5 -135.5t-35 -161zM543 1188l153 219h238l153 -219h-155l-117 117l-117 -117h-155z" />
<glyph unicode="&#xf5;" horiz-adv-x="1630" d="M176 530q0 127 49 230.5t135 177.5t203 115t252 41t252 -41t203 -115t135 -177.5t49 -230.5t-49 -230t-135 -177t-203 -115t-252 -41t-252 41t-203 115t-135 177t-49 230zM315 530q0 -84 35 -160.5t100.5 -135t157.5 -93.5t207 -35t207 35t157.5 93.5t100.5 135t35 160.5 t-35 161t-100.5 135.5t-157.5 93t-207 34.5t-207 -34.5t-157.5 -93t-100.5 -135.5t-35 -161zM494 1188q0 31 6 68.5t24.5 70.5t53 55.5t92.5 22.5q45 0 87 -10.5t83 -22.5q39 -14 74.5 -24.5t64.5 -10.5q31 0 53.5 23.5t22.5 52.5h123q0 -35 -6.5 -72.5t-24.5 -70.5 q-20 -31 -54 -51.5t-94 -20.5q-43 0 -88 10.5t-86 22.5q-41 10 -78.5 20.5t-68.5 10.5q-23 0 -43.5 -19.5t-20.5 -54.5h-120z" />
<glyph unicode="&#xf6;" horiz-adv-x="1630" d="M176 530q0 127 49 230.5t135 177.5t203 115t252 41t252 -41t203 -115t135 -177.5t49 -230.5t-49 -230t-135 -177t-203 -115t-252 -41t-252 41t-203 115t-135 177t-49 230zM315 530q0 -84 35 -160.5t100.5 -135t157.5 -93.5t207 -35t207 35t157.5 93.5t100.5 135t35 160.5 t-35 161t-100.5 135.5t-157.5 93t-207 34.5t-207 -34.5t-157.5 -93t-100.5 -135.5t-35 -161zM549 1188v188h188v-188h-188zM911 1188v188h189v-188h-189z" />
<glyph unicode="&#xf9;" horiz-adv-x="1630" d="M303 408v653h139v-653q0 -68 19.5 -124.5t63.5 -95t115 -60.5t175 -22t175 22t115 61.5t63.5 95t19.5 123.5v653h139v-653q0 -127 -42 -212t-112.5 -136.5t-164 -72t-193.5 -20.5t-193.5 20.5t-164 72t-112.5 136.5t-42 212zM582 1413h223l139 -225h-160z" />
<glyph unicode="&#xfa;" horiz-adv-x="1630" d="M303 408v653h139v-653q0 -68 19.5 -124.5t63.5 -95t115 -60.5t175 -22t175 22t115 61.5t63.5 95t19.5 123.5v653h139v-653q0 -127 -42 -212t-112.5 -136.5t-164 -72t-193.5 -20.5t-193.5 20.5t-164 72t-112.5 136.5t-42 212zM664 1188l139 225h223l-203 -225h-159z" />
<glyph unicode="&#xfb;" horiz-adv-x="1630" d="M303 408v653h139v-653q0 -68 19.5 -124.5t63.5 -95t115 -60.5t175 -22t175 22t115 61.5t63.5 95t19.5 123.5v653h139v-653q0 -127 -42 -212t-112.5 -136.5t-164 -72t-193.5 -20.5t-193.5 20.5t-164 72t-112.5 136.5t-42 212zM543 1188l153 219h238l153 -219h-155 l-117 117l-117 -117h-155z" />
<glyph unicode="&#xfc;" horiz-adv-x="1630" d="M303 408v653h139v-653q0 -68 19.5 -124.5t63.5 -95t115 -60.5t175 -22t175 22t115 61.5t63.5 95t19.5 123.5v653h139v-653q0 -127 -42 -212t-112.5 -136.5t-164 -72t-193.5 -20.5t-193.5 20.5t-164 72t-112.5 136.5t-42 212zM549 1188v188h188v-188h-188zM911 1188v188 h189v-188h-189z" />
<glyph unicode="&#xfd;" horiz-adv-x="1175" d="M35 1061h182l369 -408l368 408h185l-484 -535v-526h-139v526zM426 1188l139 225h223l-202 -225h-160z" />
<glyph unicode="&#xff;" horiz-adv-x="1175" d="M35 1061h182l369 -408l368 408h185l-484 -535v-526h-139v526zM322 1188v188h188v-188h-188zM684 1188v188h188v-188h-188z" />
<glyph unicode="&#x178;" horiz-adv-x="1593" d="M37 1536h180l580 -731l579 731h180l-690 -866v-670h-139v670zM541 1663v188h188v-188h-188zM903 1663v188h189v-188h-189z" />
<glyph unicode="&#x2c6;" horiz-adv-x="720" d="M88 1188l154 219h237l154 -219h-156l-117 117l-116 -117h-156z" />
<glyph unicode="&#x2dc;" horiz-adv-x="720" d="M18 1188q0 31 6.5 68.5t25 70.5t53 55.5t92.5 22.5q45 0 87 -10.5t83 -22.5q39 -14 74.5 -24.5t64.5 -10.5q31 0 53.5 23.5t22.5 52.5h122q0 -35 -6 -72.5t-24 -70.5q-20 -31 -54 -51.5t-94 -20.5q-43 0 -88 10.5t-86 22.5q-41 10 -79 20.5t-68 10.5q-23 0 -43.5 -19.5 t-20.5 -54.5h-121z" />
<glyph unicode="&#x2000;" horiz-adv-x="1065" />
<glyph unicode="&#x2001;" horiz-adv-x="2130" />
<glyph unicode="&#x2002;" horiz-adv-x="1065" />
<glyph unicode="&#x2003;" horiz-adv-x="2130" />
<glyph unicode="&#x2004;" horiz-adv-x="710" />
<glyph unicode="&#x2005;" horiz-adv-x="532" />
<glyph unicode="&#x2006;" horiz-adv-x="355" />
<glyph unicode="&#x2007;" horiz-adv-x="355" />
<glyph unicode="&#x2008;" horiz-adv-x="266" />
<glyph unicode="&#x2009;" horiz-adv-x="426" />
<glyph unicode="&#x200a;" horiz-adv-x="118" />
<glyph unicode="&#x2010;" horiz-adv-x="681" d="M55 467v119h570v-119h-570z" />
<glyph unicode="&#x2011;" horiz-adv-x="681" d="M55 467v119h570v-119h-570z" />
<glyph unicode="&#x2012;" horiz-adv-x="681" d="M55 467v119h570v-119h-570z" />
<glyph unicode="&#x2013;" horiz-adv-x="1135" d="M55 467v119h1024v-119h-1024z" />
<glyph unicode="&#x2014;" horiz-adv-x="1517" d="M61 467v119h1395v-119h-1395z" />
<glyph unicode="&#x2018;" horiz-adv-x="796" d="M248 1356q0 51 16.5 90t41 66.5t55 42t59.5 14.5q51 0 90 -30t39 -83q0 -55 -19.5 -78.5t-54.5 -46.5q-16 -10 -40.5 -12t-47 -4t-39 -7t-16.5 -24q0 -57 27.5 -100t61.5 -74t62.5 -51.5t28.5 -28.5q0 -10 -6 -15t-10 -5q-8 0 -48 22.5t-84.5 66.5t-80 108.5t-35.5 148.5 z" />
<glyph unicode="&#x2019;" horiz-adv-x="796" d="M248 1456q0 53 39 83t90 30q29 0 59.5 -14.5t55 -42t41 -66.5t16.5 -90q0 -84 -36 -148.5t-80 -108.5t-84 -66.5t-48 -22.5q-4 0 -10 5t-6 15q0 8 27.5 28.5t61.5 51.5t62.5 74t28.5 100q0 18 -16.5 23.5t-39 7.5t-47 4t-40.5 12q-35 23 -54.5 46.5t-19.5 78.5z" />
<glyph unicode="&#x201c;" horiz-adv-x="1366" d="M260 1356q0 51 16.5 90t41 66.5t55 42t59.5 14.5q51 0 90 -30t39 -83q0 -55 -19.5 -78.5t-54.5 -46.5q-16 -10 -40.5 -12t-47 -4t-39 -7t-16.5 -24q0 -57 27.5 -100t61.5 -74t62.5 -51.5t28.5 -28.5q0 -10 -6 -15t-10 -5q-8 0 -48 22.5t-84 66.5t-80 108.5t-36 148.5z M803 1356q0 51 16.5 90t41 66.5t55 42t59.5 14.5q51 0 90 -30t39 -83q0 -55 -19.5 -78.5t-54.5 -46.5q-16 -10 -40.5 -12t-47 -4t-39 -7t-16.5 -24q0 -57 27.5 -100t61.5 -74t62.5 -51.5t28.5 -28.5q0 -10 -6 -15t-10 -5q-8 0 -48 22.5t-84.5 66.5t-80 108.5t-35.5 148.5z " />
<glyph unicode="&#x201d;" horiz-adv-x="1366" d="M260 1456q0 53 39 83t90 30q29 0 59.5 -14.5t55 -42t41 -66.5t16.5 -90q0 -84 -36 -148.5t-80 -108.5t-83.5 -66.5t-48.5 -22.5q-4 0 -10 5t-6 15q0 8 27.5 28.5t61.5 51.5t62.5 74t28.5 100q0 18 -16.5 23.5t-39 7.5t-47 4t-40.5 12q-35 23 -54.5 46.5t-19.5 78.5z M803 1456q0 53 39 83t90 30q29 0 59.5 -14.5t55 -42t41 -66.5t16.5 -90q0 -84 -36 -148.5t-80 -108.5t-84 -66.5t-48 -22.5q-4 0 -10 5t-6 15q0 8 27.5 28.5t61.5 51.5t62.5 74t28.5 100q0 18 -16.5 23.5t-39 7.5t-47 4t-40.5 12q-35 23 -54.5 46.5t-19.5 78.5z" />
<glyph unicode="&#x202f;" horiz-adv-x="426" />
<glyph unicode="&#x2039;" horiz-adv-x="645" d="M109 532l276 400h147l-235 -400l235 -395h-147z" />
<glyph unicode="&#x203a;" horiz-adv-x="645" d="M109 137l235 395l-235 400h147l276 -400l-276 -395h-147z" />
<glyph unicode="&#x205f;" horiz-adv-x="532" />
<glyph unicode="&#xe000;" horiz-adv-x="1064" d="M0 0v1065h1065v-1065h-1065z" />
</font>
</defs>
</svg>
