<?xml version="1.0" standalone="no"?>
<!DOCTYPE svg PUBLIC "-//W3C//DTD SVG 1.1//EN" "http://www.w3.org/Graphics/SVG/1.1/DTD/svg11.dtd" >
<svg xmlns="http://www.w3.org/2000/svg">
<metadata></metadata>
<defs>
<font id="baseninemedium" horiz-adv-x="1366" >
<font-face units-per-em="2048" ascent="1593" descent="-455" />
<missing-glyph horiz-adv-x="681" />
<glyph unicode="&#xfb01;" horiz-adv-x="1820" d="M182 842v227h250v98q0 192 97 309t243 117q156 0 275 -69l-43 -185q-98 41 -177 41q-75 0 -121.5 -54t-46.5 -167v-90h934v-1069h-227v842h-707v-842h-227v842h-250zM1343 1479q0 57 40 97t96 40q57 0 97 -40t40 -97q0 -55 -40 -94t-97 -39q-56 0 -96 39t-40 94z" />
<glyph unicode="&#xfb02;" horiz-adv-x="1820" d="M182 842v227h250v98q0 192 97 309t243 117h821v-1593h-227v1380h-539q-75 0 -121.5 -54t-46.5 -167v-90h320v-227h-320v-842h-227v842h-250z" />
<glyph horiz-adv-x="2048" />
<glyph horiz-adv-x="2048" />
<glyph unicode="&#xd;" horiz-adv-x="2048" />
<glyph unicode=" "  horiz-adv-x="681" />
<glyph unicode="&#x09;" horiz-adv-x="681" />
<glyph unicode="&#xa0;" horiz-adv-x="681" />
<glyph unicode="!" horiz-adv-x="909" d="M260 115q0 61 44 105t106 44t105.5 -44t43.5 -105q0 -62 -44 -107t-105 -45t-105.5 45t-44.5 107zM262 1593h295l-80 -1138h-135z" />
<glyph unicode="&#x22;" horiz-adv-x="1138" d="M205 1593h272l-90 -684h-92zM659 1593h275l-92 -684h-90z" />
<glyph unicode="#" horiz-adv-x="1593" d="M227 455v227h228v227h-228v230h228v227h227v-227h227v227h230v-227h227v-230h-227v-227h227v-227h-227v-228h-230v228h-227v-228h-227v228h-228zM682 682h227v227h-227v-227z" />
<glyph unicode="$" d="M199 989q0 147 111.5 252t281.5 135v217h227v-217q159 -25 316 -149l-68 -180q-187 120 -354 120q-119 0 -189.5 -53.5t-70.5 -124.5q0 -44 31 -77.5t82.5 -54.5t116.5 -43.5t133.5 -42t133.5 -52t116.5 -72.5t82.5 -104.5t31 -145.5q0 -141 -102 -247.5t-259 -149.5 v-227h-227v209q-189 14 -363 133l29 207q230 -121 401 -121q65 0 123.5 19.5t100 63.5t41.5 105q0 40 -25 69.5t-67 48t-96 34t-114 31.5t-120.5 35.5t-114.5 51t-96 73.5t-67 108t-25 149z" />
<glyph unicode="%" horiz-adv-x="2048" d="M160 979q0 170 99.5 290t240.5 120q142 0 242 -120t100 -290t-100 -290t-242 -120q-141 0 -240.5 120t-99.5 290zM375 981q0 -77 37 -133.5t88 -56.5q52 0 89.5 56.5t37.5 133.5q0 76 -37 130t-90 54q-51 0 -88 -54t-37 -130zM457 0l882 1366h254l-884 -1366h-252z M1206 387q0 170 100 290t242 120q141 0 240.5 -120t99.5 -290t-99.5 -290t-240.5 -120q-142 0 -242 120t-100 290zM1421 389q0 -77 37.5 -133.5t89.5 -56.5q51 0 88 56.5t37 133.5q0 76 -37 130t-88 54q-53 0 -90 -54t-37 -130z" />
<glyph unicode="&#x26;" d="M240 422q0 207 161 342q-94 112 -94 248q0 157 110 267t265 110q196 0 362 -138v-321h-67l-41 71q-38 63 -67.5 95t-74 49.5t-112.5 17.5q-61 0 -105.5 -44.5t-44.5 -106.5q0 -61 44 -104.5t106 -43.5h61v-227h-61q-90 0 -152.5 -64t-62.5 -155q0 -90 62.5 -152.5 t152.5 -62.5q91 0 154 63t63 152v196h342v-227h-115v-387h-67l-62 106q-132 -129 -315 -129t-312.5 131t-129.5 314z" />
<glyph unicode="'" horiz-adv-x="681" d="M205 1593h272l-90 -684h-92z" />
<glyph unicode="(" horiz-adv-x="909" d="M182 682q0 102 19.5 196.5t49.5 170t79 151t96 131.5t114 119.5t118.5 107t122.5 101.5q7 5 10 8l112 -143q-154 -136 -215 -200q-211 -222 -260 -469q-16 -84 -16 -173q0 -85 17 -167t36.5 -141.5t66.5 -131t73 -108.5t92 -103t87 -85.5t93 -82.5q18 -16 26 -23 l-112 -143q-192 158 -273 239q-228 226 -299 474q-37 128 -37 272z" />
<glyph unicode=")" horiz-adv-x="909" d="M6 -160q7 6 22 19q47 41 72 63t71 66t72.5 74t66 78.5t62.5 89t50 95.5t41.5 108t24.5 117.5t10 131.5q0 119 -32 229.5t-70.5 184.5t-116 163t-121.5 129.5t-133 118.5q-13 11 -19 17l115 143q195 -159 281 -246q232 -233 297 -493q30 -117 30 -246q0 -79 -12 -154 t-30 -137t-50.5 -126t-61.5 -111.5t-77 -103.5t-82.5 -93t-92 -88.5t-92 -80t-94.5 -78.5q-11 -9 -16 -13z" />
<glyph unicode="*" horiz-adv-x="1593" d="M137 1079l27 86l518 -96l72 524h90l71 -526l519 98l26 -86l-475 -227l252 -467l-74 -53l-364 383l-365 -383l-74 53l252 467z" />
<glyph unicode="+" horiz-adv-x="1593" d="M227 500v229h455v455h227v-455h457v-229h-457v-455h-227v455h-455z" />
<glyph unicode="," horiz-adv-x="1138" d="M299 -324q168 113 174 306q-58 14 -94.5 59t-36.5 104q0 67 49 115.5t117 48.5q85 0 135.5 -60.5t50.5 -133.5q0 -163 -96 -302t-252 -214z" />
<glyph unicode="-" horiz-adv-x="1138" d="M227 500v229h682v-229h-682z" />
<glyph unicode="." horiz-adv-x="909" d="M244 143q0 67 49 116.5t117 49.5q67 0 116 -49t49 -117t-49 -117t-116 -49q-68 0 -117 49.5t-49 116.5z" />
<glyph unicode="/" horiz-adv-x="1138" d="M90 0l741 1366h216l-740 -1366h-217z" />
<glyph unicode="0" d="M205 682q0 196 54 354.5t164 255.5t259 97t259.5 -97t165 -255.5t54.5 -354.5t-54.5 -354t-165 -254.5t-259.5 -96.5t-259 96.5t-164 254.5t-54 354zM446 682q0 -132 26.5 -239t81 -172.5t128.5 -65.5q111 0 174.5 136.5t63.5 340.5q0 205 -63.5 342t-174.5 137 q-74 0 -128.5 -65.5t-81 -173t-26.5 -240.5z" />
<glyph unicode="1" d="M270 930l459 459h68v-1162h227v-227h-682v227h227v701l-247 -92z" />
<glyph unicode="2" d="M227 0v82l490 518q33 34 50.5 53.5t49 59.5t48 70.5t30.5 71.5t14 79q0 94 -66.5 160.5t-160.5 66.5t-160.5 -66.5t-66.5 -160.5v-115h-228v115q0 92 36 176.5t97 145.5t145.5 97t176.5 36q93 0 177.5 -36t145.5 -97.5t97.5 -145.5t36.5 -176q0 -90 -28.5 -168 t-72.5 -135.5t-116 -124.5l-295 -279h512v-227h-912z" />
<glyph unicode="3" d="M248 299l215 76q20 -72 80 -121t139 -49q94 0 160.5 66.5t66.5 160.5t-66.5 160.5t-160.5 66.5h-170v70l301 410h-369l-110 -183h-68v410h895v-113l-299 -401q123 -57 200 -167.5t77 -252.5q0 -92 -36.5 -176t-97.5 -145.5t-145.5 -97.5t-177.5 -36q-154 0 -272 90.5 t-162 231.5z" />
<glyph unicode="4" d="M137 227v203l668 959h104v-934h230v-228h-230v-227h-227v227h-545zM389 455h293v422z" />
<glyph unicode="5" d="M248 299l215 76q20 -72 80 -121t139 -49q94 0 160.5 66.5t66.5 160.5t-66.5 160.5t-160.5 66.5q-116 0 -188 -100h-199v807h797v-410h-68l-109 183h-391v-281q71 29 158 29q93 0 177.5 -36t145.5 -97.5t97.5 -145.5t36.5 -176t-36.5 -176t-97.5 -145.5t-145.5 -97.5 t-177.5 -36q-151 0 -270.5 91t-163.5 231z" />
<glyph unicode="6" d="M227 432q-1 88 29.5 159.5t89.5 153.5l434 621h279l-338 -481q175 -14 296.5 -144.5t121.5 -308.5q0 -92 -36.5 -176t-97.5 -145.5t-145.5 -97.5t-177.5 -36q-187 0 -320 133.5t-135 321.5zM455 432q0 -94 66.5 -160.5t160.5 -66.5t160.5 66.5t66.5 160.5t-66.5 160.5 t-160.5 66.5t-160.5 -66.5t-66.5 -160.5z" />
<glyph unicode="7" d="M160 1139v227h979v-111l-625 -1255h-242l566 1139h-678z" />
<glyph unicode="8" d="M240 422q0 101 43 190t118 152q-94 112 -94 248q0 157 110 267t265 110q156 0 266.5 -110.5t110.5 -266.5q0 -137 -96 -248q76 -63 119.5 -152t43.5 -190q0 -185 -130 -315t-314 -130t-313 130t-129 315zM467 418q0 -90 62.5 -152.5t152.5 -62.5q91 0 154 63t63 152 q0 91 -63 155t-154 64q-90 0 -152.5 -64t-62.5 -155zM532 1012q0 -61 44 -104.5t106 -43.5t107 43.5t45 104.5t-45 106t-107 45q-61 0 -105.5 -44.5t-44.5 -106.5z" />
<glyph unicode="9" d="M227 934q0 92 36 176.5t97 145.5t145.5 97t176.5 36q188 0 321 -133.5t136 -321.5q1 -89 -29 -160t-90 -156l-434 -618h-279l336 479q-174 14 -295 145.5t-121 309.5zM455 934q0 -95 66.5 -162t160.5 -67t160.5 67t66.5 162q0 94 -66.5 160.5t-160.5 66.5t-160.5 -66.5 t-66.5 -160.5z" />
<glyph unicode=":" horiz-adv-x="909" d="M244 143q0 67 49 116.5t117 49.5q67 0 116 -49t49 -117t-49 -117t-116 -49q-68 0 -117 49.5t-49 116.5zM244 881q0 67 49 116.5t117 49.5q67 0 116 -49t49 -117t-49 -117t-116 -49q-68 0 -117 49.5t-49 116.5z" />
<glyph unicode=";" horiz-adv-x="1138" d="M299 -324q168 113 174 306q-58 14 -94.5 59t-36.5 104q0 67 49 115.5t117 48.5q85 0 135.5 -60.5t50.5 -133.5q0 -163 -96 -302t-252 -214zM342 881q0 68 48.5 117t117.5 49q68 0 117 -49.5t49 -116.5t-49 -116.5t-117 -49.5q-69 0 -117.5 49t-48.5 117z" />
<glyph unicode="&#x3c;" d="M205 682l921 756l66 -64l-565 -692l565 -690l-66 -68z" />
<glyph unicode="=" horiz-adv-x="1138" d="M227 272v228h682v-228h-682zM227 729v227h682v-227h-682z" />
<glyph unicode="&#x3e;" d="M172 -8l567 690l-567 692l68 64l921 -756l-921 -758z" />
<glyph unicode="?" d="M227 1047v114q0 92 36 176.5t97 145.5t145.5 97t176.5 36q93 0 177.5 -36t145.5 -97.5t97.5 -145.5t36.5 -176q0 -58 -14 -111t-34 -91.5t-54.5 -79.5t-61.5 -66.5t-68 -60.5l-383 -338l-98 114l313 318q94 97 132 168t38 147q0 94 -66.5 161t-160.5 67t-160.5 -67 t-66.5 -161v-114h-228zM442 115q0 61 44 105t106 44t105.5 -44t43.5 -105q0 -62 -44 -107t-105 -45t-105.5 45t-44.5 107z" />
<glyph unicode="@" horiz-adv-x="2048" d="M158 614q0 198 78.5 379.5t210.5 313t314.5 210t381.5 78.5q164 0 307.5 -54t248.5 -149.5t165.5 -235t60.5 -302.5q0 -135 -46 -264.5t-118 -222.5t-163 -150t-179 -57q-142 0 -211 100q-52 -45 -116 -72.5t-123 -27.5q-121 0 -206.5 71.5t-118.5 191.5t-11 265 q34 222 175.5 374t324.5 152q66 0 124 -31t97 -81l84 100h94l-121 -760q-19 -139 70 -139q49 0 104 45t100 117.5t74.5 175t30.5 207.5q0 139 -50 253.5t-134.5 188t-193.5 113t-230 39.5q-220 0 -405 -115t-289.5 -303t-104.5 -401q0 -218 89.5 -384t248 -254.5 t362.5 -88.5q103 0 190.5 16.5t158.5 49.5t119.5 63t107.5 75l63 -108q-335 -236 -661 -236q-186 0 -353 66t-288 179t-191.5 273t-70.5 340zM883.5 530q8.5 -70 40 -113.5t77.5 -43.5q71 0 129.5 84t81.5 231q26 145 -6.5 230.5t-103.5 85.5q-69 0 -130 -92.5t-85 -223.5 q-12 -88 -3.5 -158z" />
<glyph unicode="A" d="M227 0v864q0 245 130 385t325 140q95 0 178 -35t145 -100t98 -165.5t36 -224.5v-864h-230v455h-454v-455h-228zM455 682h454v182q0 144 -64 220.5t-163 76.5t-163 -76.5t-64 -220.5v-182z" />
<glyph unicode="B" d="M227 0v1366h478q151 0 257.5 -107t106.5 -258q0 -129 -80 -225q172 -132 172 -344q0 -180 -126.5 -306t-305.5 -126h-502zM455 227h274q85 0 145 60t60 145q0 86 -60 145.5t-145 59.5h-274v-410zM455 864h250q57 0 97 40t40 97t-40 97.5t-97 40.5h-250v-275z" />
<glyph unicode="C" d="M205 682q0 193 71 354t203.5 257t300.5 96q126 0 247.5 -72.5t193.5 -190.5l-144 -127q-132 162 -286 162q-140 0 -238 -131.5t-98 -347.5q0 -215 98 -346t238 -131q156 0 286 162l144 -127q-72 -118 -193.5 -190.5t-247.5 -72.5q-168 0 -300.5 95.5t-203.5 256 t-71 353.5z" />
<glyph unicode="D" d="M227 0v1366h320q125 0 238.5 -54t195.5 -145.5t131 -218t49 -266.5q0 -185 -82.5 -342.5t-224 -248.5t-307.5 -91h-320zM455 227h92q149 0 255.5 133.5t106.5 321.5q0 189 -106.5 323t-255.5 134h-92v-912z" />
<glyph unicode="E" horiz-adv-x="1138" d="M227 0v1366h682v-227h-454v-275h454v-227h-454v-410h454v-227h-682z" />
<glyph unicode="F" horiz-adv-x="1138" d="M227 0v1366h729v-227h-501v-275h501v-227h-501v-637h-228z" />
<glyph unicode="G" d="M205 682q0 193 68.5 354t196 257t288.5 96q121 0 237 -72t185 -191l-136 -127q-126 162 -272 162q-133 0 -225 -131.5t-92 -347.5q0 -215 92 -346t225 -131q86 0 162 53v197h-229v227h456v-682h-69l-48 84q-132 -107 -286 -107q-161 0 -288.5 95.5t-196 256t-68.5 353.5z " />
<glyph unicode="H" d="M227 0v1366h228v-502h454v502h230v-1366h-230v637h-454v-637h-228z" />
<glyph unicode="I" horiz-adv-x="1138" d="M227 0v227h228v912h-228v227h682v-227h-227v-912h227v-227h-682z" />
<glyph unicode="J" horiz-adv-x="909" d="M-61 82l106 178q85 -55 182 -55q99 0 163.5 76t64.5 219v866h227v-866q0 -123 -36 -223t-98 -165t-144.5 -100t-176.5 -35q-161 0 -288 105z" />
<glyph unicode="K" d="M227 0v1366h228v-629l450 629h279l-479 -668l501 -698h-278l-473 659v-659h-228z" />
<glyph unicode="L" horiz-adv-x="909" d="M227 0v1366h228v-1139h387v-227h-615z" />
<glyph unicode="M" horiz-adv-x="1593" d="M227 0v1366h187l383 -719l383 719h186v-1366h-217v823l-330 -618h-45l-330 618v-823h-217z" />
<glyph unicode="N" d="M227 0v1366h170l537 -872v872h205v-1366h-172l-535 872v-872h-205z" />
<glyph unicode="O" d="M205 682q0 196 54 354.5t164 255.5t259 97t259.5 -97t165 -255.5t54.5 -354.5t-54.5 -354t-165 -254.5t-259.5 -96.5t-259 96.5t-164 254.5t-54 354zM446 682q0 -132 26.5 -239t81 -172.5t128.5 -65.5q111 0 174.5 136.5t63.5 340.5q0 205 -63.5 342t-174.5 137 q-74 0 -128.5 -65.5t-81 -173t-26.5 -240.5z" />
<glyph unicode="P" d="M227 0v1366h502q92 0 176 -36.5t145.5 -97.5t97.5 -145.5t36 -177.5q0 -187 -133.5 -320.5t-321.5 -133.5h-274v-455h-228zM455 682h274q94 0 160.5 66.5t66.5 160.5q0 95 -66.5 162.5t-160.5 67.5h-274v-457z" />
<glyph unicode="Q" d="M205 682q0 196 54 354.5t164 255.5t259 97t259.5 -97t165 -255.5t54.5 -354.5q0 -257 -94 -445t-264 -241q14 -125 62 -185.5t145 -60.5q42 0 94.5 25t89.5 57l55 -156q-65 -67 -130 -99t-152 -32q-177 0 -272 111t-120 336q-117 32 -201.5 132.5t-126.5 243.5t-42 314z M455 682q0 -132 25.5 -239t78 -172.5t123.5 -65.5q72 0 124.5 66t77.5 172t25 239q0 134 -25 240.5t-77 172.5t-125 66q-106 0 -166.5 -137t-60.5 -342z" />
<glyph unicode="R" d="M227 0v1366h432q92 0 176 -36.5t145.5 -97.5t97.5 -145.5t36 -177.5q0 -130 -67.5 -238.5t-180.5 -164.5l363 -506h-279l-327 455h-168v-455h-228zM455 682h204q94 0 161 66.5t67 160.5q0 95 -67 162.5t-161 67.5h-204v-457z" />
<glyph unicode="S" horiz-adv-x="1138" d="M137 987q0 116 62.5 209t165 143t223.5 50q111 0 199.5 -38t199.5 -126l-72 -181q-181 119 -319 119q-99 0 -160 -45.5t-61 -109.5q0 -43 28 -78.5t73.5 -59.5t103.5 -49.5t118.5 -47.5t118.5 -56t103.5 -73.5t73.5 -101t28 -136.5q0 -102 -40.5 -185t-108 -135.5 t-153 -80.5t-179.5 -28q-107 0 -197 35t-188 111l26 203q113 -61 199 -91t168 -30q54 0 105.5 17.5t89.5 57t38 91.5q0 46 -27.5 82.5t-73 59t-103.5 47t-118.5 45.5t-118.5 55t-103.5 74.5t-73 105.5t-27.5 147z" />
<glyph unicode="T" horiz-adv-x="1138" d="M68 1139v227h1001v-227h-387v-1139h-227v1139h-387z" />
<glyph unicode="U" d="M227 500v866h228v-866q0 -143 64 -219t163 -76t163 76t64 219v866h230v-866q0 -123 -36 -223t-98 -165t-145 -100t-178 -35q-94 0 -176.5 35t-144.5 100t-98 165t-36 223z" />
<glyph unicode="V" horiz-adv-x="1138" d="M0 1366h246l323 -825l324 825h246l-547 -1389h-45z" />
<glyph unicode="W" horiz-adv-x="1593" d="M0 1366h231l269 -795l180 535l-88 260h231l269 -795l268 795h233l-479 -1389h-45l-272 795l-273 -795h-47z" />
<glyph unicode="X" horiz-adv-x="1138" d="M47 0l389 702l-366 664h262l235 -426l236 426h264l-369 -664l392 -702h-263l-258 467l-258 -467h-264z" />
<glyph unicode="Y" horiz-adv-x="1138" d="M0 1366h262l307 -561l308 561h262l-457 -819v-547h-227v547z" />
<glyph unicode="Z" horiz-adv-x="1138" d="M199 0l413 1139h-407v227h733l-414 -1139h410v-227h-735z" />
<glyph unicode="[" horiz-adv-x="909" d="M227 -342v1935h455v-227h-227v-1481h227v-227h-455z" />
<glyph unicode="\" horiz-adv-x="1138" d="M115 1366h170l739 -1366h-170z" />
<glyph unicode="]" horiz-adv-x="909" d="M227 -115h228v1481h-228v227h455v-1935h-455v227z" />
<glyph unicode="^" horiz-adv-x="1593" d="M248 764l475 602h96l473 -602l-75 -74l-445 340l-448 -340z" />
<glyph unicode="_" horiz-adv-x="1138" d="M0 0h1139v-227h-1139v227z" />
<glyph unicode="`" d="M381 1659l190 190l418 -544l-63 -64z" />
<glyph unicode="a" d="M172 535q0 152 61.5 280t167.5 202.5t232 74.5q101 0 188.5 -48.5t153.5 -136.5l86 162h78v-1069h-78l-86 162q-66 -88 -153.5 -136.5t-188.5 -48.5q-126 0 -231.5 74.5t-166.5 203t-63 280.5zM412 535q0 -142 72 -243.5t175 -101.5q104 0 177 101.5t73 243.5t-73 243 t-177 101t-175.5 -101t-71.5 -243z" />
<glyph unicode="b" d="M227 0v1593h228v-612q124 111 278 111q125 0 230.5 -74t167 -202.5t61.5 -280.5t-61.5 -280.5t-167 -203t-230.5 -74.5q-101 0 -189.5 48.5t-152.5 136.5l-86 -162h-78zM455 535q0 -141 73.5 -243t176.5 -102q104 0 176.5 101.5t72.5 243.5t-72.5 243t-176.5 101 q-103 0 -176.5 -101.5t-73.5 -242.5z" />
<glyph unicode="c" horiz-adv-x="1138" d="M172 535q0 152 65 280t177 202.5t245 74.5q115 0 215.5 -57t169.5 -156l-137 -115q-38 56 -100 85.5t-127 29.5q-112 0 -190 -98.5t-78 -245.5q0 -148 78 -246.5t190 -98.5q68 0 131.5 29t95.5 86l135 -115q-67 -99 -167.5 -156t-215.5 -57q-133 0 -245 74.5t-177 203 t-65 280.5z" />
<glyph unicode="d" d="M172 535q0 152 61.5 280t167.5 202.5t232 74.5q155 0 276 -111v612h230v-1593h-78l-86 162q-66 -88 -153.5 -136.5t-188.5 -48.5q-126 0 -232 74.5t-167.5 203t-61.5 280.5zM412 535q0 -142 72 -243.5t175 -101.5q104 0 177 101.5t73 243.5t-73 243t-177 101t-175.5 -101 t-71.5 -243z" />
<glyph unicode="e" d="M170 530q0 154 65.5 282t186.5 204t274 76q111 0 207.5 -46t161.5 -123.5t93 -186.5q17 -64 17 -132q0 -47 -8 -96h-749q-1 -10 -1 -20q-1 -66 29 -127q34 -71 111.5 -121t183.5 -50q133 0 275 123l119 -143q-68 -85 -180 -139t-234 -54q-168 0 -295 75t-191.5 199.5 t-64.5 278.5zM449 696h473q0 80 -60.5 131.5t-163.5 51.5q-78 0 -146.5 -44t-102.5 -139z" />
<glyph unicode="f" horiz-adv-x="1138" d="M182 842v227h250v98q0 192 97 309t243 117q156 0 275 -69l-43 -185q-98 41 -177 41q-75 0 -121.5 -54t-46.5 -167v-90h320v-227h-320v-842h-227v842h-250z" />
<glyph unicode="g" d="M172 535q0 152 61.5 280t167.5 202.5t232 74.5q101 0 188.5 -48.5t153.5 -136.5l86 162h78v-999q0 -123 -38.5 -224t-104.5 -166t-153.5 -100t-187.5 -35q-131 0 -245.5 65.5t-178.5 158.5l125 127q73 -73 145 -110.5t167 -37.5q105 0 173 77t68 224v39 q-121 -111 -276 -111q-126 0 -232 74.5t-167.5 203t-61.5 280.5zM412 535q0 -142 72 -243.5t175 -101.5q104 0 177 101.5t73 243.5t-73 243t-177 101t-175.5 -101t-71.5 -243z" />
<glyph unicode="h" d="M227 0v1593h228v-608q53 49 131.5 78t154.5 29q181 0 300.5 -139.5t119.5 -370.5v-37v-545h-227v541v34q0 140 -66 218.5t-163 78.5q-96 0 -173 -74.5t-77 -176.5v-72v-549h-228z" />
<glyph unicode="i" horiz-adv-x="681" d="M205 1479q0 57 40 97t97 40q56 0 95.5 -40t39.5 -97q0 -55 -39.5 -94t-95.5 -39q-57 0 -97 39t-40 94zM227 0v1069h228v-1069h-228z" />
<glyph unicode="j" horiz-adv-x="681" d="M-98 -369l28 140q79 -33 129 -33q75 0 121.5 54t46.5 169v1108h228v-1098q0 -192 -96.5 -309t-241.5 -117q-119 0 -215 86zM205 1479q0 57 40 97t97 40q56 0 95.5 -40t39.5 -97q0 -55 -39.5 -94t-95.5 -39q-57 0 -97 39t-40 94z" />
<glyph unicode="k" d="M227 0v1593h228v-991l467 467h295l-512 -512l559 -557h-320l-489 489v-489h-228z" />
<glyph unicode="l" horiz-adv-x="681" d="M227 0v1593h228v-1593h-228z" />
<glyph unicode="m" horiz-adv-x="1593" d="M227 0v1069h78l60 -106q41 59 104 94t133 35q143 0 229 -113q41 51 101 82t127 31q132 0 219.5 -103.5t87.5 -271.5v-717h-227v719q0 69 -33.5 109t-81.5 40t-81.5 -36.5t-33.5 -90.5v-741h-227v719q0 69 -32.5 109t-80.5 40t-81 -36.5t-33 -90.5v-741h-228z" />
<glyph unicode="n" d="M227 0v1069h78l86 -156q57 80 154 129.5t196 49.5q181 0 300.5 -139.5t119.5 -370.5v-582h-227v575q0 140 -66 218.5t-163 78.5q-96 0 -173 -74.5t-77 -176.5v-621h-228z" />
<glyph unicode="o" d="M172 535q0 152 68.5 280.5t186 202.5t255.5 74q139 0 256.5 -74.5t185.5 -202.5t68 -280t-68 -280.5t-185.5 -203t-256.5 -74.5q-138 0 -255.5 74.5t-186 203t-68.5 280.5zM412 535q0 -142 79 -243.5t191 -101.5q113 0 192.5 101.5t79.5 243.5t-79.5 243t-192.5 101 q-112 0 -191 -101t-79 -243z" />
<glyph unicode="p" d="M227 -455v1524h78l86 -162q64 88 152.5 136.5t189.5 48.5q125 0 230.5 -74t167 -202.5t61.5 -280.5t-61.5 -280.5t-167 -203t-230.5 -74.5q-154 0 -278 111v-543h-228zM455 535q0 -141 73.5 -243t176.5 -102q104 0 176.5 101.5t72.5 243.5t-72.5 243t-176.5 101 q-103 0 -176.5 -101.5t-73.5 -242.5z" />
<glyph unicode="q" d="M172 535q0 152 61.5 280t167.5 202.5t232 74.5q101 0 188.5 -48.5t153.5 -136.5l86 162h78v-1524h-230v543q-121 -111 -276 -111q-126 0 -232 74.5t-167.5 203t-61.5 280.5zM412 535q0 -142 72 -243.5t175 -101.5q104 0 177 101.5t73 243.5t-73 243t-177 101t-175.5 -101 t-71.5 -243z" />
<glyph unicode="r" horiz-adv-x="909" d="M227 0v1069h78l86 -156q59 82 145 130.5t183 48.5l65 -7v-442h-75l-113 211q-63 -30 -102 -93t-39 -140v-621h-228z" />
<glyph unicode="s" horiz-adv-x="1138" d="M197 772q0 140 114.5 233t278.5 93q95 0 174.5 -31t179.5 -106l-67 -168q-91 49 -156.5 74.5t-124.5 25.5q-74 0 -120 -31.5t-46 -75.5q0 -34 29.5 -61t77 -47t104.5 -40t114.5 -46.5t105 -60.5t77 -88.5t29.5 -123.5q0 -107 -60 -187.5t-153 -119.5t-203 -39 q-91 0 -170 29.5t-172 93.5l24 193q111 -57 184.5 -83t137.5 -26q65 0 121.5 30.5t56.5 84.5q0 37 -29.5 64.5t-77 47t-104.5 38.5t-114 45t-104.5 60.5t-77 91t-29.5 130.5z" />
<glyph unicode="t" horiz-adv-x="1138" d="M182 842v227h205v387h227v-387h342v-227h-342v-447q0 -115 46.5 -169t121.5 -54q49 0 131 33l27 -139q-99 -86 -215 -86q-145 0 -241.5 117t-96.5 309v436h-205z" />
<glyph unicode="u" d="M205 487v582h227v-575q0 -139 65 -217t162 -78q96 0 173 74t77 176v620h230v-1069h-78l-86 158q-57 -82 -154 -131.5t-198 -49.5q-179 0 -298.5 139.5t-119.5 370.5z" />
<glyph unicode="v" horiz-adv-x="1138" d="M88 1069h242l239 -594l238 594h242l-441 -1092h-78z" />
<glyph unicode="w" horiz-adv-x="1593" d="M43 1069h242l239 -594l152 381l-86 213h241l238 -594l240 594h241l-442 -1092h-78l-233 580l-236 -580h-76z" />
<glyph unicode="x" horiz-adv-x="1138" d="M90 0l348 555l-319 514h250l196 -313l195 313h250l-320 -512l348 -557h-252l-221 354l-223 -354h-252z" />
<glyph unicode="y" horiz-adv-x="1138" d="M88 1069h242l239 -594l238 594h242l-615 -1524h-241l256 633z" />
<glyph unicode="z" horiz-adv-x="1138" d="M170 0l428 842h-420v227h791l-428 -842h420v-227h-791z" />
<glyph unicode="{" horiz-adv-x="1138" d="M137 682l334 276q0 87 15.5 166t40 139.5t62 116t74.5 95t85.5 78t87 63t86.5 51.5l114 -143q-113 -70 -156 -109q-114 -103 -148 -284q-19 -97 -19 -226l-269 -223l269 -223q0 -68 6 -127.5t14 -106t24.5 -88.5t31 -71.5t39.5 -59.5t42.5 -48t49.5 -41.5t51.5 -36 t54.5 -34.5q2 -1 3.5 -2l3 -2t3.5 -2l-114 -143q-51 30 -89 54.5t-88 63.5t-85.5 78t-73.5 94.5t-61.5 115.5t-38.5 138.5t-15 166.5z" />
<glyph unicode="|" horiz-adv-x="681" d="M227 -455v2048h228v-2048h-228z" />
<glyph unicode="}" horiz-adv-x="1138" d="M102 -160q112 71 155 110q116 105 151 289q18 95 18 220l268 223l-268 223q0 87 -9 159.5t-23.5 125.5t-38.5 97.5t-48 75t-58 59.5t-63.5 48.5t-68.5 44.5l-15 9l115 143q48 -27 86.5 -51.5t87 -63t85.5 -78t74.5 -95t62 -116t40 -139.5t15.5 -166l333 -276l-333 -274 q0 -88 -15 -166.5t-39 -138.5t-61.5 -115.5t-73.5 -94t-86 -78t-87.5 -64t-88.5 -54.5z" />
<glyph unicode="~" d="M213 391q0 193 76.5 309.5t177.5 116.5q43 0 102 -24t108 -53.5t105.5 -53.5t96.5 -24q43 0 69 41t49 133h156q0 -208 -74 -319t-192 -111q-49 0 -129.5 40t-157 79.5t-115.5 39.5q-37 0 -66.5 -47.5t-47.5 -126.5h-158z" />
<glyph unicode="&#xa1;" horiz-adv-x="909" d="M260 1024q0 62 44 106t106 44q61 0 105 -44t44 -106t-44 -106t-105 -44q-62 0 -106 44t-44 106zM262 -455l80 1137h135l80 -1137h-295z" />
<glyph unicode="&#xa2;" horiz-adv-x="1138" d="M172 682q0 190 99 337.5t253 197.5v376h228v-362q175 -40 292 -205l-137 -113q-38 55 -100 84t-127 29q-112 0 -190 -98.5t-78 -245.5q0 -146 78 -244t190 -98q69 0 132.5 28t94.5 85l135 -113q-111 -164 -290 -205v-362h-228v374q-154 50 -253 198.5t-99 336.5z" />
<glyph unicode="&#xa3;" d="M227 0v227h250v387h-250v228h250v16q0 228 120.5 368t299.5 140q54 0 112.5 -17.5t100.5 -50.5v-327h-68l-108 192q-100 0 -164.5 -78t-64.5 -219v-24h405v-228h-405v-387h479v-227h-957z" />
<glyph unicode="&#xa4;" d="M18 180l254 254q-67 115 -67 248q0 136 67 248l-254 256l162 162l254 -256q119 69 248 69q132 0 248 -69l256 256l162 -162l-256 -256q69 -116 69 -248q0 -129 -69 -248l233 -231l-162 -162l-233 231q-112 -67 -248 -67q-133 0 -248 67l-254 -254zM432 682 q0 -101 74.5 -175.5t175.5 -74.5q103 0 177.5 74.5t74.5 175.5q0 103 -74.5 177.5t-177.5 74.5q-101 0 -175.5 -74.5t-74.5 -177.5z" />
<glyph unicode="&#xa5;" horiz-adv-x="1138" d="M0 1366h262l307 -561l308 561h262l-406 -729h291v-227h-342v-410h-227v410h-340v227h291z" />
<glyph unicode="&#xa6;" horiz-adv-x="681" d="M227 410h228v-865h-228v865zM227 752v841h228v-841h-228z" />
<glyph unicode="&#xa7;" horiz-adv-x="1138" d="M197 772q0 87 41 148q-41 59 -41 147q0 140 114.5 233t278.5 93q95 0 174.5 -31.5t179.5 -106.5l-67 -168q-181 101 -281 101q-74 0 -120 -30.5t-46 -74.5q0 -34 29.5 -61t77 -47t104.5 -40t114.5 -47t105 -61t77 -88.5t29.5 -124.5q0 -90 -39 -155q39 -63 39 -140 q0 -107 -60 -187.5t-153 -119.5t-203 -39q-91 0 -170 29.5t-172 93.5l24 193q111 -57 184.5 -83t137.5 -26q65 0 121.5 30.5t56.5 84.5q0 37 -29.5 64.5t-77 47t-104.5 38.5t-114 45t-104.5 60.5t-77 91t-29.5 130.5zM401 821q0 -54 20.5 -90.5t60 -58t80.5 -35t99.5 -33.5 t100.5 -43q0 54 -20.5 90.5t-60 58.5t-80.5 35.5t-100 33.5t-100 42z" />
<glyph unicode="&#xa8;" horiz-adv-x="1593" d="M432 1389q0 56 40 95.5t97 39.5q56 0 96 -40t40 -95q0 -57 -40 -97.5t-96 -40.5q-57 0 -97 40.5t-40 97.5zM887 1389q0 56 40 95.5t97 39.5t97 -39.5t40 -95.5q0 -57 -40 -97.5t-97 -40.5t-97 40.5t-40 97.5z" />
<glyph unicode="&#xa9;" horiz-adv-x="2048" d="M90 682q0 189 74 362t199.5 298.5t298.5 199.5t362 74t362 -74t298.5 -199.5t199.5 -298.5t74 -362q0 -127 -33.5 -247.5t-94 -222.5t-147 -188.5t-189 -146.5t-223 -93.5t-247.5 -33.5t-247.5 33.5t-223 93.5t-189 146.5t-147 188.5t-94 222.5t-33.5 247.5zM270 682 q0 -203 101 -375t273.5 -272.5t375.5 -100.5q152 0 290 59.5t238.5 159.5t159.5 238.5t59 290.5q0 203 -100 375.5t-272.5 273.5t-374.5 101q-203 0 -375.5 -101t-273.5 -273.5t-101 -375.5zM600 682q0 131 57 240t162.5 174t239.5 65q196 0 360 -221l-127 -117 q-72 73 -123.5 99t-105.5 26q-91 0 -151 -73.5t-60 -192.5t60 -192.5t151 -73.5q55 0 106.5 26.5t122.5 102.5l127 -117q-162 -223 -360 -223q-201 0 -330 139t-129 338z" />
<glyph unicode="&#xaa;" d="M205 909q0 130 63 240.5t172.5 175t239.5 64.5q186 0 328 -132l61 109h70v-911h-70l-61 106q-140 -127 -328 -127q-97 0 -185 37.5t-151.5 101.5t-101 151.5t-37.5 184.5zM432 909q0 -101 73.5 -174t174.5 -73q103 0 176.5 73t73.5 174q0 103 -73.5 177.5t-176.5 74.5 q-101 0 -174.5 -74.5t-73.5 -177.5z" />
<glyph unicode="&#xab;" horiz-adv-x="2048" d="M205 682l921 756l66 -64l-565 -692l565 -690l-66 -68zM887 682l921 756l68 -64l-567 -692l567 -690l-68 -68z" />
<glyph unicode="&#xac;" d="M227 637v227h914v-694h-234v467h-680z" />
<glyph unicode="&#xad;" horiz-adv-x="1138" d="M227 500v229h682v-229h-682z" />
<glyph unicode="&#xae;" horiz-adv-x="2048" d="M90 682q0 189 74 362t199.5 298.5t298.5 199.5t362 74t362 -74t298.5 -199.5t199.5 -298.5t74 -362q0 -127 -33.5 -247.5t-94 -222.5t-147 -188.5t-189 -146.5t-223 -93.5t-247.5 -33.5t-247.5 33.5t-223 93.5t-189 146.5t-147 188.5t-94 222.5t-33.5 247.5zM270 682 q0 -203 101 -375t273.5 -272.5t375.5 -100.5q152 0 290 59.5t238.5 159.5t159.5 238.5t59 290.5q0 203 -100 375.5t-272.5 273.5t-374.5 101q-203 0 -375.5 -101t-273.5 -273.5t-101 -375.5zM682 227v912h358q141 0 240.5 -100.5t99.5 -241.5q0 -91 -44 -168.5t-119 -122.5 l219 -279h-291l-178 228h-58v-228h-227zM909 682h135q46 0 80.5 34.5t34.5 80.5q0 45 -34.5 78.5t-80.5 33.5h-135v-227z" />
<glyph unicode="&#xaf;" horiz-adv-x="1593" d="M455 1479v227h684v-227h-684z" />
<glyph unicode="&#xb0;" horiz-adv-x="1138" d="M193 1012q0 156 110.5 266.5t265.5 110.5t265 -110t110 -267q0 -155 -110 -265t-265 -110t-265.5 110t-110.5 265zM408 1012q0 -66 47 -113t114 -47q66 0 114 47t48 113q0 67 -48 114.5t-114 47.5q-67 0 -114 -47t-47 -115z" />
<glyph unicode="&#xb1;" horiz-adv-x="1593" d="M227 0v227h1139v-227h-1139zM227 637v227h455v275h227v-275h457v-227h-457v-272h-227v272h-455z" />
<glyph unicode="&#xb2;" horiz-adv-x="854" d="M127 506v145l276 338q30 38 41.5 53.5t22 37t10.5 40.5q0 37 -28 64.5t-66 27.5h-176v162h231q107 0 182.5 -74t75.5 -180q0 -108 -75 -186l-240 -258h315v-170h-569z" />
<glyph unicode="&#xb3;" horiz-adv-x="854" d="M127 510v164h225q40 0 67 27t27 65q0 39 -27.5 66.5t-66.5 27.5h-182v162h182q40 0 67 28t27 68q0 37 -27.5 64.5t-66.5 27.5h-225v162h260q106 0 181 -75t75 -179q0 -103 -70 -176q70 -73 70 -176q0 -105 -75.5 -180.5t-180.5 -75.5h-260z" />
<glyph unicode="&#xb4;" d="M371 1305l420 544l190 -190l-547 -418z" />
<glyph unicode="&#xb5;" d="M205 -455v1524h227v-575q0 -139 65 -217t162 -78q96 0 173 74t77 176v620h230v-1069h-78l-86 158q-57 -82 -154 -131.5t-198 -49.5q-99 0 -191 50v-482h-227z" />
<glyph unicode="&#xb6;" horiz-adv-x="1820" d="M227 909q0 93 36 177.5t97.5 145.5t145.5 97.5t176 36.5h911v-227h-227v-1139h-227v1139h-230v-1139h-227v455q-188 0 -321.5 133.5t-133.5 320.5z" />
<glyph unicode="&#xb7;" horiz-adv-x="909" d="M289 752q0 68 49.5 117t116.5 49q69 0 117.5 -49t48.5 -117q0 -69 -48.5 -117.5t-117.5 -48.5q-68 0 -117 48.5t-49 117.5z" />
<glyph unicode="&#xb8;" horiz-adv-x="1593" d="M262 -530q0 -1 25 30l50 62l25 32q85 -71 209 -71q68 0 119 32.5t51 77.5q0 46 -51 80.5t-119 34.5h-39l62 397h205l-76 -231q99 -37 159 -112.5t60 -168.5q0 -128 -107.5 -217.5t-261.5 -89.5q-96 0 -178 39t-133 105z" />
<glyph unicode="&#xb9;" horiz-adv-x="1024" d="M186 1040l344 344h84v-702h170v-170h-544v170h170v356l-187 -71z" />
<glyph unicode="&#xba;" d="M205 909q0 130 63 240.5t172.5 175t239.5 64.5t240.5 -64.5t174.5 -175t64 -240.5q0 -196 -140.5 -335.5t-338.5 -139.5q-97 0 -185 37.5t-151.5 101.5t-101 151.5t-37.5 184.5zM432 909q0 -101 73.5 -174t174.5 -73q103 0 176.5 73t73.5 174q0 103 -73.5 177.5 t-176.5 74.5q-101 0 -174.5 -74.5t-73.5 -177.5z" />
<glyph unicode="&#xbb;" horiz-adv-x="2048" d="M172 -8l567 690l-567 692l68 64l921 -756l-921 -758zM856 -8l565 690l-565 692l66 64l921 -756l-921 -758z" />
<glyph unicode="&#xbc;" horiz-adv-x="2275" d="M186 1040l344 344h84v-702h170v-170h-544v170h170v356l-187 -71zM682 0l739 1366h172l-739 -1366h-172zM1323 170v98l455 604h125v-530h170v-172h-170v-170h-205v170h-375zM1538 342h160v211z" />
<glyph unicode="&#xbd;" horiz-adv-x="2275" d="M186 1040l344 344h84v-702h170v-170h-544v170h170v356l-187 -71zM682 0l739 1366h172l-739 -1366h-172zM1452 4v146l274 339q32 38 43.5 53t22 36t10.5 40q0 38 -28 66.5t-68 28.5h-174v161h231q107 0 182.5 -75t75.5 -181q0 -105 -75 -186l-242 -256h317v-172h-569z" />
<glyph unicode="&#xbe;" horiz-adv-x="2048" d="M127 510v164h225q40 0 67 27t27 65q0 39 -27.5 66.5t-66.5 27.5h-182v162h182q40 0 67 28t27 68q0 37 -27.5 64.5t-66.5 27.5h-225v162h260q106 0 181 -75t75 -179q0 -103 -70 -176q70 -73 70 -176q0 -105 -75.5 -180.5t-180.5 -75.5h-260zM500 0l741 1366h170 l-739 -1366h-172zM1094 170v98l456 604h125v-530h170v-172h-170v-170h-205v170h-376zM1311 342h159v211z" />
<glyph unicode="&#xbf;" d="M227 0q0 72 18.5 133t57 113t70 84.5t84.5 79.5l385 335l98 -112l-313 -320q-95 -95 -133.5 -166t-38.5 -147q0 -94 66.5 -160.5t160.5 -66.5t160.5 66.5t66.5 160.5v115h230v-115q0 -92 -36.5 -176t-97.5 -145.5t-145.5 -97.5t-177.5 -36q-92 0 -176.5 36t-145.5 97 t-97 145.5t-36 176.5zM623 1047q0 61 44.5 105t106.5 44t106 -44t44 -105t-44 -105.5t-106 -44.5t-106.5 44.5t-44.5 105.5z" />
<glyph unicode="&#xc0;" d="M199 1950l190 190l418 -544l-63 -64zM227 0v864q0 245 130 385t325 140q95 0 178 -35t145 -100t98 -165.5t36 -224.5v-864h-230v455h-454v-455h-228zM455 682h454v182q0 144 -64 220.5t-163 76.5t-163 -76.5t-64 -220.5v-182z" />
<glyph unicode="&#xc1;" d="M227 0v864q0 245 130 385t325 140q95 0 178 -35t145 -100t98 -165.5t36 -224.5v-864h-230v455h-454v-455h-228zM455 682h454v182q0 144 -64 220.5t-163 76.5t-163 -76.5t-64 -220.5v-182zM561 1592l420 544l190 -190l-547 -418z" />
<glyph unicode="&#xc2;" d="M227 0v864q0 245 130 385t325 140q95 0 178 -35t145 -100t98 -165.5t36 -224.5v-864h-230v455h-454v-455h-228zM239 1610l396 499h80l395 -499l-64 -64l-370 283l-373 -283zM455 682h454v182q0 144 -64 220.5t-163 76.5t-163 -76.5t-64 -220.5v-182z" />
<glyph unicode="&#xc3;" d="M225 1532q0 195 67.5 324t156.5 129q44 0 103 -30t107.5 -65.5t105 -65.5t95.5 -30q104 0 141 215h103q0 -213 -65.5 -336t-168.5 -123q-39 0 -98.5 31t-111 67.5t-106.5 67.5t-87 31q-43 0 -83.5 -64t-55.5 -151h-103zM227 0v864q0 245 130 385t325 140q95 0 178 -35 t145 -100t98 -165.5t36 -224.5v-864h-230v455h-454v-455h-228zM455 682h454v182q0 144 -64 220.5t-163 76.5t-163 -76.5t-64 -220.5v-182z" />
<glyph unicode="&#xc4;" d="M227 0v864q0 245 130 385t325 140q95 0 178 -35t145 -100t98 -165.5t36 -224.5v-864h-230v455h-454v-455h-228zM326 1684q0 56 40 95.5t97 39.5q56 0 96 -40t40 -95q0 -57 -40 -97.5t-96 -40.5q-57 0 -97 40.5t-40 97.5zM455 682h454v182q0 144 -64 220.5t-163 76.5 t-163 -76.5t-64 -220.5v-182zM781 1684q0 56 40 95.5t97 39.5t97 -39.5t40 -95.5q0 -57 -40 -97.5t-97 -40.5t-97 40.5t-40 97.5z" />
<glyph unicode="&#xc5;" d="M227 0v864q0 245 130 385t325 140q95 0 178 -35t145 -100t98 -165.5t36 -224.5v-864h-230v455h-454v-455h-228zM334 1821q0 141 100 241.5t242 100.5q141 0 240.5 -100.5t99.5 -241.5t-99.5 -240.5t-240.5 -99.5q-142 0 -242 99.5t-100 240.5zM455 682h454v182 q0 144 -64 220.5t-163 76.5t-163 -76.5t-64 -220.5v-182zM524 1821q0 -61 45 -105.5t107 -44.5q61 0 105 44t44 106t-44 106.5t-105 44.5q-62 0 -107 -45t-45 -106z" />
<glyph unicode="&#xc6;" horiz-adv-x="1820" d="M227 0v842q0 124 36 224t98 165t144.5 100t176.5 35h911v-227h-454v-457h454v-227h-454v-228h454v-227h-684v455h-454v-455h-228zM455 682h454v457h-227q-99 0 -163 -76.5t-64 -220.5v-160z" />
<glyph unicode="&#xc7;" d="M205 682q0 193 71 354t203.5 257t300.5 96q126 0 247.5 -72.5t193.5 -190.5l-144 -127q-132 162 -286 162q-140 0 -238 -131.5t-98 -347.5q0 -215 98 -346t238 -131q156 0 286 162l144 -127q-70 -117 -187.5 -188.5t-242.5 -74.5l-21 -63q98 -37 157.5 -112.5 t59.5 -168.5q0 -128 -107.5 -217.5t-261.5 -89.5q-96 0 -178 39t-133 105q0 -1 25 30l50 62l26 32q85 -71 208 -71q69 0 119.5 32.5t50.5 77.5q0 46 -50.5 80.5t-119.5 34.5h-38l38 254q-186 63 -298.5 250t-112.5 430z" />
<glyph unicode="&#xc8;" horiz-adv-x="1138" d="M141 1972l191 191l418 -545l-64 -64zM227 0v1366h682v-227h-454v-275h454v-227h-454v-410h454v-227h-682z" />
<glyph unicode="&#xc9;" horiz-adv-x="1138" d="M227 0v1366h682v-227h-454v-275h454v-227h-454v-410h454v-227h-682zM371 1592l420 544l190 -190l-547 -418z" />
<glyph unicode="&#xca;" horiz-adv-x="1138" d="M137 1624l395 500h80l396 -500l-64 -63l-371 282l-372 -282zM227 0v1366h682v-227h-454v-275h454v-227h-454v-410h454v-227h-682z" />
<glyph unicode="&#xcb;" horiz-adv-x="1138" d="M227 0v1366h682v-227h-454v-275h454v-227h-454v-410h454v-227h-682zM231 1684q0 56 40 95.5t97 39.5q56 0 96 -40t40 -95q0 -57 -40 -97.5t-96 -40.5q-57 0 -97 40.5t-40 97.5zM686 1684q0 56 40 95.5t97 39.5t97 -39.5t40 -95.5q0 -57 -40 -97.5t-97 -40.5t-97 40.5 t-40 97.5z" />
<glyph unicode="&#xcc;" horiz-adv-x="1138" d="M127 1950l190 190l418 -545l-63 -63zM227 0v227h228v912h-228v227h682v-227h-227v-912h227v-227h-682z" />
<glyph unicode="&#xcd;" horiz-adv-x="1138" d="M227 0v227h228v912h-228v227h682v-227h-227v-912h227v-227h-682zM527 1610l420 544l190 -190l-547 -418z" />
<glyph unicode="&#xce;" horiz-adv-x="1138" d="M141 1614l396 500h79l396 -500l-64 -64l-370 283l-373 -283zM227 0v227h228v912h-228v227h682v-227h-227v-912h227v-227h-682z" />
<glyph unicode="&#xcf;" horiz-adv-x="1138" d="M213 1684q0 56 40 95.5t97 39.5q56 0 96 -40t40 -95q0 -57 -40 -97.5t-96 -40.5q-57 0 -97 40.5t-40 97.5zM227 0v227h228v912h-228v227h682v-227h-227v-912h227v-227h-682zM668 1684q0 56 40 95.5t97 39.5t97 -39.5t40 -95.5q0 -57 -40 -97.5t-97 -40.5t-97 40.5 t-40 97.5z" />
<glyph unicode="&#xd0;" d="M0 592v227h227v547h320q125 0 238.5 -54t195.5 -145.5t131 -218t49 -266.5q0 -185 -82.5 -342.5t-224 -248.5t-307.5 -91h-320v592h-227zM455 227h92q149 0 255.5 133.5t106.5 321.5q0 189 -106.5 323t-255.5 134h-92v-320h227v-227h-227v-365z" />
<glyph unicode="&#xd1;" d="M227 0v1366h170l537 -872v872h205v-1366h-172l-535 872v-872h-205zM248 1522q0 195 67.5 323.5t156.5 128.5q36 0 81 -19.5t87.5 -47.5t84.5 -56t84 -47.5t74 -19.5q104 0 141 215h103q0 -213 -65.5 -336t-168.5 -123q-39 0 -98.5 31t-111 67.5t-106.5 67.5t-87 31 q-43 0 -83.5 -64t-55.5 -151h-103z" />
<glyph unicode="&#xd2;" d="M176 1972l190 190l418 -544l-63 -64zM205 682q0 196 54 354.5t164 255.5t259 97t259.5 -97t165 -255.5t54.5 -354.5t-54.5 -354t-165 -254.5t-259.5 -96.5t-259 96.5t-164 254.5t-54 354zM446 682q0 -132 26.5 -239t81 -172.5t128.5 -65.5q111 0 174.5 136.5t63.5 340.5 q0 205 -63.5 342t-174.5 137q-74 0 -128.5 -65.5t-81 -173t-26.5 -240.5z" />
<glyph unicode="&#xd3;" d="M205 682q0 196 54 354.5t164 255.5t259 97t259.5 -97t165 -255.5t54.5 -354.5t-54.5 -354t-165 -254.5t-259.5 -96.5t-259 96.5t-164 254.5t-54 354zM446 682q0 -132 26.5 -239t81 -172.5t128.5 -65.5q111 0 174.5 136.5t63.5 340.5q0 205 -63.5 342t-174.5 137 q-74 0 -128.5 -65.5t-81 -173t-26.5 -240.5zM535 1624l420 544l190 -190l-547 -418z" />
<glyph unicode="&#xd4;" d="M205 682q0 196 54 354.5t164 255.5t259 97t259.5 -97t165 -255.5t54.5 -354.5t-54.5 -354t-165 -254.5t-259.5 -96.5t-259 96.5t-164 254.5t-54 354zM272 1632l396 500h80l395 -500l-64 -63l-370 282l-373 -282zM446 682q0 -132 26.5 -239t81 -172.5t128.5 -65.5 q111 0 174.5 136.5t63.5 340.5q0 205 -63.5 342t-174.5 137q-74 0 -128.5 -65.5t-81 -173t-26.5 -240.5z" />
<glyph unicode="&#xd5;" d="M205 682q0 196 54 354.5t164 255.5t259 97t259.5 -97t165 -255.5t54.5 -354.5t-54.5 -354t-165 -254.5t-259.5 -96.5t-259 96.5t-164 254.5t-54 354zM233 1522q0 195 67.5 323.5t156.5 128.5q36 0 81 -19.5t87.5 -47.5t84.5 -56t84 -47.5t74 -19.5q104 0 141 215h103 q0 -213 -65.5 -336t-168.5 -123q-39 0 -98.5 31t-111 67.5t-106.5 67.5t-87 31q-43 0 -83.5 -64t-55.5 -151h-103zM446 682q0 -132 26.5 -239t81 -172.5t128.5 -65.5q111 0 174.5 136.5t63.5 340.5q0 205 -63.5 342t-174.5 137q-74 0 -128.5 -65.5t-81 -173t-26.5 -240.5z " />
<glyph unicode="&#xd6;" d="M205 682q0 196 54 354.5t164 255.5t259 97t259.5 -97t165 -255.5t54.5 -354.5t-54.5 -354t-165 -254.5t-259.5 -96.5t-259 96.5t-164 254.5t-54 354zM307 1684q0 56 40 95.5t97 39.5q56 0 96 -40t40 -95q0 -57 -40 -97.5t-96 -40.5q-57 0 -97 40.5t-40 97.5zM446 682 q0 -132 26.5 -239t81 -172.5t128.5 -65.5q111 0 174.5 136.5t63.5 340.5q0 205 -63.5 342t-174.5 137q-74 0 -128.5 -65.5t-81 -173t-26.5 -240.5zM762 1684q0 56 40 95.5t97 39.5t97 -39.5t40 -95.5q0 -57 -40 -97.5t-97 -40.5t-97 40.5t-40 97.5z" />
<glyph unicode="&#xd7;" horiz-adv-x="1593" d="M313 293l322 321l-322 322l162 162l322 -322l321 322l160 -162l-320 -322l320 -321l-160 -162l-321 322l-322 -322z" />
<glyph unicode="&#xd8;" d="M0 262l229 176q-24 117 -24 244q0 196 54 354.5t164 255.5t259 97q134 0 235.5 -77t163.5 -212l183 141l102 -137l-231 -178q26 -127 26 -244q0 -196 -54.5 -354t-165 -254.5t-259.5 -96.5q-134 0 -234.5 76t-162.5 213l-183 -141zM446 682q0 -38 3 -72l432 334 q-33 99 -86 158t-113 59q-63 0 -117.5 -64.5t-86.5 -175t-32 -239.5zM485 422q33 -100 85 -158.5t112 -58.5q98 0 168 141t70 336q0 51 -2 74z" />
<glyph unicode="&#xd9;" d="M176 1968l190 190l418 -544l-63 -64zM227 500v866h228v-866q0 -143 64 -219t163 -76t163 76t64 219v866h230v-866q0 -123 -36 -223t-98 -165t-145 -100t-178 -35q-94 0 -176.5 35t-144.5 100t-98 165t-36 223z" />
<glyph unicode="&#xda;" d="M227 500v866h228v-866q0 -143 64 -219t163 -76t163 76t64 219v866h230v-866q0 -123 -36 -223t-98 -165t-145 -100t-178 -35q-94 0 -176.5 35t-144.5 100t-98 165t-36 223zM596 1610l420 544l190 -190l-547 -418z" />
<glyph unicode="&#xdb;" d="M227 500v866h228v-866q0 -143 64 -219t163 -76t163 76t64 219v866h230v-866q0 -123 -36 -223t-98 -165t-145 -100t-178 -35q-94 0 -176.5 35t-144.5 100t-98 165t-36 223zM254 1610l395 499h80l395 -499l-63 -64l-371 283l-373 -283z" />
<glyph unicode="&#xdc;" d="M227 500v866h228v-866q0 -143 64 -219t163 -76t163 76t64 219v866h230v-866q0 -123 -36 -223t-98 -165t-145 -100t-178 -35q-94 0 -176.5 35t-144.5 100t-98 165t-36 223zM326 1683q0 56 40 96t97 40q55 0 95 -40t40 -96q0 -57 -39.5 -97t-95.5 -40q-57 0 -97 40t-40 97z M780 1683q0 56 40.5 96t97.5 40t97 -40t40 -96q0 -57 -40 -97t-97 -40t-97.5 40t-40.5 97z" />
<glyph unicode="&#xdd;" horiz-adv-x="1138" d="M0 1366h262l307 -561l308 561h262l-457 -819v-547h-227v547zM471 1618l420 544l190 -190l-547 -418z" />
<glyph unicode="&#xde;" d="M227 0v1593h228v-319h274q187 0 321 -134t134 -321t-133.5 -320.5t-321.5 -133.5h-274v-365h-228zM455 592h274q94 0 160.5 66.5t66.5 160.5t-66.5 161t-160.5 67h-274v-455z" />
<glyph unicode="&#xdf;" d="M227 0v944q0 183 131 314t314 131t312.5 -131t129.5 -314q0 -138 -74 -244q81 -54 129 -140.5t48 -188.5q0 -164 -115 -279t-279 -115q-134 0 -245 84l34 199q95 -57 211 -57q71 0 121.5 49.5t50.5 118.5q0 70 -50.5 120t-121.5 50h-151v184q91 0 153 63t62 154 t-62.5 155t-152.5 64q-91 0 -154 -64t-63 -155v-942h-228z" />
<glyph unicode="&#xe0;" d="M172 535q0 152 61.5 280t167.5 202.5t232 74.5q101 0 188.5 -48.5t153.5 -136.5l86 162h78v-1069h-78l-86 162q-66 -88 -153.5 -136.5t-188.5 -48.5q-126 0 -231.5 74.5t-166.5 203t-63 280.5zM266 1659l191 190l417 -544l-63 -64zM412 535q0 -142 72 -243.5t175 -101.5 q104 0 177 101.5t73 243.5t-73 243t-177 101t-175.5 -101t-71.5 -243z" />
<glyph unicode="&#xe1;" d="M172 535q0 152 61.5 280t167.5 202.5t232 74.5q101 0 188.5 -48.5t153.5 -136.5l86 162h78v-1069h-78l-86 162q-66 -88 -153.5 -136.5t-188.5 -48.5q-126 0 -231.5 74.5t-166.5 203t-63 280.5zM412 535q0 -142 72 -243.5t175 -101.5q104 0 177 101.5t73 243.5t-73 243 t-177 101t-175.5 -101t-71.5 -243zM527 1305l420 544l190 -190l-547 -418z" />
<glyph unicode="&#xe2;" d="M172 535q0 152 61.5 280t167.5 202.5t232 74.5q101 0 188.5 -48.5t153.5 -136.5l86 162h78v-1069h-78l-86 162q-66 -88 -153.5 -136.5t-188.5 -48.5q-126 0 -231.5 74.5t-166.5 203t-63 280.5zM266 1305l396 499h80l395 -499l-64 -64l-370 283l-373 -283zM412 535 q0 -142 72 -243.5t175 -101.5q104 0 177 101.5t73 243.5t-73 243t-177 101t-175.5 -101t-71.5 -243z" />
<glyph unicode="&#xe3;" d="M172 535q0 152 61.5 280t167.5 202.5t232 74.5q101 0 188.5 -48.5t153.5 -136.5l86 162h78v-1069h-78l-86 162q-66 -88 -153.5 -136.5t-188.5 -48.5q-126 0 -231.5 74.5t-166.5 203t-63 280.5zM272 1227q0 195 67.5 323.5t156.5 128.5q36 0 81 -19.5t87.5 -47.5t84.5 -56 t84 -47.5t74 -19.5q104 0 141 215h103q0 -213 -65.5 -336t-168.5 -123q-39 0 -98.5 31t-111 67.5t-106.5 67.5t-87 31q-43 0 -83.5 -64t-55.5 -151h-103zM412 535q0 -142 72 -243.5t175 -101.5q104 0 177 101.5t73 243.5t-73 243t-177 101t-175.5 -101t-71.5 -243z" />
<glyph unicode="&#xe4;" d="M172 535q0 152 61.5 280t167.5 202.5t232 74.5q101 0 188.5 -48.5t153.5 -136.5l86 162h78v-1069h-78l-86 162q-66 -88 -153.5 -136.5t-188.5 -48.5q-126 0 -231.5 74.5t-166.5 203t-63 280.5zM338 1366q0 56 40 95.5t97 39.5q55 0 95 -39.5t40 -95.5q0 -57 -39.5 -97 t-95.5 -40q-57 0 -97 40t-40 97zM412 535q0 -142 72 -243.5t175 -101.5q104 0 177 101.5t73 243.5t-73 243t-177 101t-175.5 -101t-71.5 -243zM793 1366q0 56 40 95.5t97 39.5t97 -39.5t40 -95.5q0 -57 -40 -97t-97 -40t-97 40t-40 97z" />
<glyph unicode="&#xe5;" d="M172 535q0 152 61.5 280t167.5 202.5t232 74.5q101 0 188.5 -48.5t153.5 -136.5l86 162h78v-1069h-78l-86 162q-66 -88 -153.5 -136.5t-188.5 -48.5q-126 0 -231.5 74.5t-166.5 203t-63 280.5zM367 1501q0 141 100 241.5t242 100.5q141 0 240.5 -100.5t99.5 -241.5 t-99.5 -240.5t-240.5 -99.5q-142 0 -242 99.5t-100 240.5zM412 535q0 -142 72 -243.5t175 -101.5q104 0 177 101.5t73 243.5t-73 243t-177 101t-175.5 -101t-71.5 -243zM557 1501q0 -61 45 -105t107 -44q61 0 105 44t44 105q0 62 -44 107t-105 45t-106.5 -45.5t-45.5 -106.5 z" />
<glyph unicode="&#xe6;" horiz-adv-x="2048" d="M158 266q0 84 38 153t102 115t150.5 78t180 46t194.5 14h80q0 113 -53 161t-180 48q-70 0 -174 -42.5t-187 -95.5l-86 150q107 82 234 140.5t235 58.5q243 0 346 -148q148 148 363 148q111 0 207.5 -46t161.5 -123.5t93.5 -186.5t8.5 -228h-748q-5 -55 14.5 -111 t59 -102.5t105 -75.5t145.5 -29q130 0 272 123l121 -143q-68 -85 -180 -139t-234 -54q-149 0 -265 58.5t-187 161.5q-87 -99 -204 -158t-245 -59q-79 0 -143.5 19.5t-105 49.5t-68.5 69t-39.5 76t-11.5 72zM389 270q0 -43 43.5 -71.5t106.5 -28.5q75 0 157.5 36.5 t144.5 108.5t64 158h-67q-81 0 -155 -10t-143 -32t-110 -63.5t-41 -97.5zM1153 696h473q0 80 -59.5 131.5t-161.5 51.5q-79 0 -147.5 -44t-104.5 -139z" />
<glyph unicode="&#xe7;" horiz-adv-x="1138" d="M172 535q0 152 65 280t177 202.5t245 74.5q115 0 215.5 -57t169.5 -156l-137 -115q-38 56 -100 85.5t-127 29.5q-112 0 -190 -98.5t-78 -245.5q0 -148 78 -246.5t190 -98.5q68 0 131.5 29t95.5 86l135 -115q-59 -85 -141.5 -139t-177.5 -69l-23 -68q100 -37 160 -112.5 t60 -168.5q0 -128 -107.5 -217.5t-261.5 -89.5q-97 0 -178.5 39t-132.5 105q0 -1 25 30l50 62l25 32q83 -71 209 -71q68 0 119 32.5t51 77.5q0 46 -51 80.5t-119 34.5h-39l39 244q-164 43 -270.5 194t-106.5 349z" />
<glyph unicode="&#xe8;" d="M170 530q0 154 65.5 282t186.5 204t274 76q111 0 207.5 -46t161.5 -123.5t93.5 -186.5t8.5 -228h-749q-5 -76 28.5 -147t111 -121t183.5 -50q133 0 275 123l119 -143q-68 -85 -180 -139t-234 -54q-168 0 -295 75t-191.5 199.5t-64.5 278.5zM236 1659l190 190l418 -544 l-64 -64zM449 696h473q0 80 -60.5 131.5t-163.5 51.5q-78 0 -146.5 -44t-102.5 -139z" />
<glyph unicode="&#xe9;" d="M170 530q0 154 65.5 282t186.5 204t274 76q111 0 207.5 -46t161.5 -123.5t93.5 -186.5t8.5 -228h-749q-5 -76 28.5 -147t111 -121t183.5 -50q133 0 275 123l119 -143q-68 -85 -180 -139t-234 -54q-168 0 -295 75t-191.5 199.5t-64.5 278.5zM449 696h473q0 80 -60.5 131.5 t-163.5 51.5q-78 0 -146.5 -44t-102.5 -139zM531 1305l420 544l190 -190l-547 -418z" />
<glyph unicode="&#xea;" d="M170 530q0 154 65.5 282t186.5 204t274 76q111 0 207.5 -46t161.5 -123.5t93.5 -186.5t8.5 -228h-749q-5 -76 28.5 -147t111 -121t183.5 -50q133 0 275 123l119 -143q-68 -85 -180 -139t-234 -54q-168 0 -295 75t-191.5 199.5t-64.5 278.5zM258 1305l396 499h80l395 -499 l-64 -64l-370 283l-373 -283zM449 696h473q0 80 -60.5 131.5t-163.5 51.5q-78 0 -146.5 -44t-102.5 -139z" />
<glyph unicode="&#xeb;" d="M170 530q0 154 65.5 282t186.5 204t274 76q111 0 207.5 -46t161.5 -123.5t93.5 -186.5t8.5 -228h-749q-5 -76 28.5 -147t111 -121t183.5 -50q133 0 275 123l119 -143q-68 -85 -180 -139t-234 -54q-168 0 -295 75t-191.5 199.5t-64.5 278.5zM352 1366q0 56 40 95.5 t97 39.5q56 0 96 -40t40 -95q0 -57 -40 -97t-96 -40q-57 0 -97 40t-40 97zM449 696h473q0 80 -60.5 131.5t-163.5 51.5q-78 0 -146.5 -44t-102.5 -139zM807 1366q0 56 40 95.5t97 39.5t97 -39.5t40 -95.5q0 -57 -40 -97t-97 -40t-97 40t-40 97z" />
<glyph unicode="&#xec;" horiz-adv-x="681" d="M-178 1659l190 190l418 -544l-63 -64zM227 0v1069h228v-1069h-228z" />
<glyph unicode="&#xed;" horiz-adv-x="681" d="M193 1305l420 544l190 -190l-547 -418zM227 0v1069h228v-1069h-228z" />
<glyph unicode="&#xee;" horiz-adv-x="681" d="M-99 1305l396 499h80l395 -499l-64 -64l-370 283l-373 -283zM227 0v1069h228v-1069h-228z" />
<glyph unicode="&#xef;" horiz-adv-x="681" d="M-27 1366q0 56 40.5 95.5t97.5 39.5q55 0 95 -39.5t40 -95.5q0 -57 -39.5 -97t-95.5 -40q-57 0 -97.5 40t-40.5 97zM227 0v1069h228v-1069h-228zM428 1366q0 56 40 95.5t97 39.5t97 -39.5t40 -95.5q0 -57 -40 -97t-97 -40t-97 40t-40 97z" />
<glyph unicode="&#xf0;" d="M260 432q0 178 121 308.5t295 144.5l-94 135l-320 -123v227l193 76l-115 166h276l58 -82l334 127v-227q-207 -80 -209 -80l252 -359q59 -79 89 -151.5t29 -161.5q-2 -188 -134.5 -321.5t-319.5 -133.5q-92 0 -176.5 36t-145.5 97t-97 145.5t-36 176.5zM487 432 q0 -94 67 -160.5t161 -66.5t160.5 66.5t66.5 160.5t-66.5 160.5t-160.5 66.5t-161 -66.5t-67 -160.5z" />
<glyph unicode="&#xf1;" d="M227 0v1069h78l86 -156q57 80 154 129.5t196 49.5q181 0 300.5 -139.5t119.5 -370.5v-582h-227v575q0 140 -66 218.5t-163 78.5q-96 0 -173 -74.5t-77 -176.5v-621h-228zM252 1227q0 195 67.5 323.5t156.5 128.5q36 0 81 -19.5t87.5 -47.5t84.5 -56t84 -47.5t74 -19.5 q104 0 141 215h103q0 -213 -65.5 -336t-168.5 -123q-39 0 -98.5 31t-111 67.5t-106.5 67.5t-87 31q-43 0 -83.5 -64t-55.5 -151h-103z" />
<glyph unicode="&#xf2;" d="M172 535q0 152 68.5 280.5t186 202.5t255.5 74q139 0 256.5 -74.5t185.5 -202.5t68 -280t-68 -280.5t-185.5 -203t-256.5 -74.5q-138 0 -255.5 74.5t-186 203t-68.5 280.5zM225 1659l191 190l418 -544l-64 -64zM412 535q0 -142 79 -243.5t191 -101.5q113 0 192.5 101.5 t79.5 243.5t-79.5 243t-192.5 101q-112 0 -191 -101t-79 -243z" />
<glyph unicode="&#xf3;" d="M172 535q0 152 68.5 280.5t186 202.5t255.5 74q139 0 256.5 -74.5t185.5 -202.5t68 -280t-68 -280.5t-185.5 -203t-256.5 -74.5q-138 0 -255.5 74.5t-186 203t-68.5 280.5zM412 535q0 -142 79 -243.5t191 -101.5q113 0 192.5 101.5t79.5 243.5t-79.5 243t-192.5 101 q-112 0 -191 -101t-79 -243zM578 1305l420 544l190 -190l-547 -418z" />
<glyph unicode="&#xf4;" d="M172 535q0 152 68.5 280.5t186 202.5t255.5 74q139 0 256.5 -74.5t185.5 -202.5t68 -280t-68 -280.5t-185.5 -203t-256.5 -74.5q-138 0 -255.5 74.5t-186 203t-68.5 280.5zM249 1305l396 499h80l395 -499l-64 -64l-370 283l-373 -283zM412 535q0 -142 79 -243.5 t191 -101.5q113 0 192.5 101.5t79.5 243.5t-79.5 243t-192.5 101q-112 0 -191 -101t-79 -243z" />
<glyph unicode="&#xf5;" d="M172 535q0 152 68.5 280.5t186 202.5t255.5 74q139 0 256.5 -74.5t185.5 -202.5t68 -280t-68 -280.5t-185.5 -203t-256.5 -74.5q-138 0 -255.5 74.5t-186 203t-68.5 280.5zM248 1227q0 195 67.5 323.5t156.5 128.5q36 0 81 -19.5t87.5 -47.5t84.5 -56t84 -47.5t74 -19.5 q104 0 141 215h103q0 -213 -65.5 -336t-168.5 -123q-39 0 -98.5 31t-111 67.5t-106.5 67.5t-87 31q-43 0 -83.5 -64t-55.5 -151h-103zM412 535q0 -142 79 -243.5t191 -101.5q113 0 192.5 101.5t79.5 243.5t-79.5 243t-192.5 101q-112 0 -191 -101t-79 -243z" />
<glyph unicode="&#xf6;" d="M172 535q0 152 68.5 280.5t186 202.5t255.5 74q139 0 256.5 -74.5t185.5 -202.5t68 -280t-68 -280.5t-185.5 -203t-256.5 -74.5q-138 0 -255.5 74.5t-186 203t-68.5 280.5zM330 1366q0 56 40 95.5t97 39.5q55 0 95 -39.5t40 -95.5q0 -57 -39.5 -97t-95.5 -40 q-57 0 -97 40t-40 97zM412 535q0 -142 79 -243.5t191 -101.5q113 0 192.5 101.5t79.5 243.5t-79.5 243t-192.5 101q-112 0 -191 -101t-79 -243zM784 1366q0 56 40.5 95.5t97.5 39.5t97 -39.5t40 -95.5q0 -57 -40 -97t-97 -40t-97.5 40t-40.5 97z" />
<glyph unicode="&#xf7;" horiz-adv-x="1138" d="M227 500v229h682v-229h-682zM432 227q0 57 40 97.5t97 40.5q56 0 96 -40.5t40 -97.5t-40 -97t-96 -40q-57 0 -97 40t-40 97zM432 1001q0 57 40 97.5t97 40.5q56 0 96 -40.5t40 -97.5t-40 -97t-96 -40q-57 0 -97 40t-40 97z" />
<glyph unicode="&#xf8;" d="M68 160q10 8 26 21t50.5 41t57.5 46t23 17q-53 122 -53 250q0 152 68.5 280.5t186 202.5t255.5 74q102 0 194.5 -42t163.5 -116l144 113l112 -138q-73 -62 -157 -125q53 -119 53 -249q0 -152 -68 -280.5t-185.5 -203t-256.5 -74.5q-101 0 -194 42.5t-162 117.5l-144 -114 zM412 535q0 -45 10 -93q28 22 73.5 58.5t142 113t160.5 127.5t64 50q-78 88 -180 88q-112 0 -191 -101t-79 -243zM504 279q79 -89 178 -89q113 0 192.5 101.5t79.5 243.5q0 32 -12 94q1 0 -108.5 -87.5t-219.5 -175.5z" />
<glyph unicode="&#xf9;" d="M150 1659l190 190l418 -544l-64 -64zM205 487v582h227v-575q0 -139 65 -217t162 -78q96 0 173 74t77 176v620h230v-1069h-78l-86 158q-57 -82 -154 -131.5t-198 -49.5q-179 0 -298.5 139.5t-119.5 370.5z" />
<glyph unicode="&#xfa;" d="M205 487v582h227v-575q0 -139 65 -217t162 -78q96 0 173 74t77 176v620h230v-1069h-78l-86 158q-57 -82 -154 -131.5t-198 -49.5q-179 0 -298.5 139.5t-119.5 370.5zM582 1305l420 544l190 -190l-547 -418z" />
<glyph unicode="&#xfb;" d="M205 487v582h227v-575q0 -139 65 -217t162 -78q96 0 173 74t77 176v620h230v-1069h-78l-86 158q-57 -82 -154 -131.5t-198 -49.5q-179 0 -298.5 139.5t-119.5 370.5zM221 1305l396 499h80l395 -499l-64 -64l-370 283l-373 -283z" />
<glyph unicode="&#xfc;" d="M205 487v582h227v-575q0 -139 65 -217t162 -78q96 0 173 74t77 176v620h230v-1069h-78l-86 158q-57 -82 -154 -131.5t-198 -49.5q-179 0 -298.5 139.5t-119.5 370.5zM311 1366q0 56 40.5 95.5t97.5 39.5q55 0 95 -39.5t40 -95.5q0 -57 -39.5 -97t-95.5 -40 q-57 0 -97.5 40t-40.5 97zM766 1366q0 56 40 95.5t97 39.5t97 -39.5t40 -95.5q0 -57 -40 -97t-97 -40t-97 40t-40 97z" />
<glyph unicode="&#xfd;" horiz-adv-x="1138" d="M88 1069h242l239 -594l238 594h242l-615 -1524h-241l256 633zM492 1305l419 544l191 -190l-547 -418z" />
<glyph unicode="&#xfe;" d="M227 -455v2048h228v-614q122 113 278 113q125 0 230.5 -74t167 -202.5t61.5 -280.5t-61.5 -280.5t-167 -203t-230.5 -74.5q-154 0 -278 111v-543h-228zM455 535q0 -141 73.5 -243t176.5 -102q104 0 176.5 101.5t72.5 243.5t-72.5 243t-176.5 101q-103 0 -176.5 -101.5 t-73.5 -242.5z" />
<glyph unicode="&#xff;" horiz-adv-x="1138" d="M88 1069h242l239 -594l238 594h242l-615 -1524h-241l256 633zM188 1366q0 56 40 95.5t97 39.5q56 0 96 -40t40 -95q0 -57 -40 -97.5t-96 -40.5q-57 0 -97 40.5t-40 97.5zM643 1366q0 56 40 95.5t97 39.5t97 -39.5t40 -95.5q0 -57 -40 -97.5t-97 -40.5t-97 40.5t-40 97.5z " />
<glyph unicode="&#x152;" horiz-adv-x="1820" d="M205 682q0 196 54 354.5t164 255.5t259 97q132 0 240 -80v57h682v-227h-455v-275h455v-227h-455v-410h455v-227h-682v55q-101 -78 -240 -78q-149 0 -259 96.5t-164 254.5t-54 354zM446 682q0 -128 32 -238t86.5 -174.5t117.5 -64.5q98 0 168 141t70 336q0 129 -32 239.5 t-87 175t-119 64.5q-63 0 -117.5 -64.5t-86.5 -175t-32 -239.5z" />
<glyph unicode="&#x153;" horiz-adv-x="2048" d="M172 535q0 152 61.5 280t167.5 202.5t232 74.5q103 0 192.5 -50t153.5 -139q70 90 172.5 139.5t226.5 49.5q111 0 207.5 -46t161.5 -123.5t93.5 -186.5t8.5 -228h-747q-6 -75 27.5 -146.5t111.5 -121.5t184 -50q131 0 273 123l121 -143q-70 -85 -181 -139t-233 -54 q-138 0 -247 49t-181 138q-64 -88 -153.5 -137.5t-190.5 -49.5q-126 0 -232 74.5t-167.5 203t-61.5 280.5zM412 535q0 -141 65 -243t156 -102t156 102t65 243t-65 242.5t-156 101.5t-156 -101.5t-65 -242.5zM1130 696h474q0 80 -60.5 131.5t-163.5 51.5q-78 0 -146.5 -44 t-103.5 -139z" />
<glyph unicode="&#x178;" horiz-adv-x="1138" d="M0 1366h262l307 -561l308 561h262l-457 -819v-547h-227v547zM184 1683q0 56 40.5 96t97.5 40q55 0 95 -40t40 -96q0 -57 -39.5 -97t-95.5 -40q-57 0 -97.5 40t-40.5 97zM639 1683q0 56 40 96t97 40t97 -40t40 -96q0 -57 -40 -97t-97 -40t-97 40t-40 97z" />
<glyph unicode="&#x2c6;" horiz-adv-x="1593" d="M360 1305l396 499h80l395 -499l-64 -64l-370 283l-373 -283z" />
<glyph unicode="&#x2dc;" horiz-adv-x="1593" d="M354 1227q0 195 67.5 323.5t156.5 128.5q36 0 81 -19.5t87.5 -47.5t84.5 -56t84 -47.5t74 -19.5q104 0 141 215h103q0 -213 -65.5 -336t-168.5 -123q-39 0 -98.5 31t-111 67.5t-106.5 67.5t-87 31q-43 0 -83.5 -64t-55.5 -151h-103z" />
<glyph unicode="&#x2000;" horiz-adv-x="1084" />
<glyph unicode="&#x2001;" horiz-adv-x="2168" />
<glyph unicode="&#x2002;" horiz-adv-x="1084" />
<glyph unicode="&#x2003;" horiz-adv-x="2168" />
<glyph unicode="&#x2004;" horiz-adv-x="722" />
<glyph unicode="&#x2005;" horiz-adv-x="542" />
<glyph unicode="&#x2006;" horiz-adv-x="361" />
<glyph unicode="&#x2007;" horiz-adv-x="361" />
<glyph unicode="&#x2008;" horiz-adv-x="271" />
<glyph unicode="&#x2009;" horiz-adv-x="433" />
<glyph unicode="&#x200a;" horiz-adv-x="120" />
<glyph unicode="&#x2010;" horiz-adv-x="1138" d="M227 500v229h682v-229h-682z" />
<glyph unicode="&#x2011;" horiz-adv-x="1138" d="M227 500v229h682v-229h-682z" />
<glyph unicode="&#x2012;" horiz-adv-x="1138" d="M227 500v229h682v-229h-682z" />
<glyph unicode="&#x2013;" horiz-adv-x="1138" d="M0 500v229h1139v-229h-1139z" />
<glyph unicode="&#x2014;" horiz-adv-x="1593" d="M0 500v229h1593v-229h-1593z" />
<glyph unicode="&#x2018;" horiz-adv-x="909" d="M285 1419q0 75 50.5 136t135.5 61q67 0 116.5 -49t49.5 -115q0 -59 -37.5 -104.5t-93.5 -59.5q6 -192 174 -305l-47 -78q-155 75 -251.5 214t-96.5 300z" />
<glyph unicode="&#x2019;" horiz-adv-x="909" d="M274 983q171 113 177 305q-58 14 -95 59.5t-37 104.5q0 66 48.5 115t117.5 49q85 0 136 -61.5t51 -135.5q0 -161 -96.5 -300t-251.5 -214z" />
<glyph unicode="&#x201a;" horiz-adv-x="909" d="M274 -324q171 113 177 306q-58 14 -95 59t-37 104q0 67 48.5 115.5t117.5 48.5q85 0 136 -60.5t51 -133.5q0 -163 -96 -302t-252 -214z" />
<glyph unicode="&#x201c;" horiz-adv-x="1593" d="M285 1419q0 75 50.5 136t135.5 61q67 0 116.5 -49t49.5 -115q0 -59 -37.5 -104.5t-93.5 -59.5q6 -192 174 -305l-47 -78q-155 75 -251.5 214t-96.5 300zM922 1419q0 75 50.5 136t135.5 61q68 0 117 -49t49 -115q0 -59 -37.5 -104.5t-93.5 -59.5q6 -192 174 -305l-47 -78 q-155 75 -251.5 214t-96.5 300z" />
<glyph unicode="&#x201d;" horiz-adv-x="1593" d="M274 983q171 113 177 305q-58 14 -95 59.5t-37 104.5q0 66 48.5 115t117.5 49q85 0 136 -61.5t51 -135.5q0 -161 -96.5 -300t-251.5 -214zM913 983q168 113 174 305q-58 14 -94.5 59.5t-36.5 104.5q0 66 49 115t117 49q85 0 136 -61.5t51 -135.5q0 -161 -96.5 -300 t-251.5 -214z" />
<glyph unicode="&#x201e;" horiz-adv-x="1593" d="M274 -324q171 113 177 306q-58 14 -95 59t-37 104q0 67 48.5 115.5t117.5 48.5q85 0 136 -60.5t51 -133.5q0 -163 -96 -302t-252 -214zM913 -324q168 113 174 306q-58 14 -94.5 59t-36.5 104q0 67 49 115.5t117 48.5q85 0 136 -60.5t51 -133.5q0 -163 -96 -302t-252 -214 z" />
<glyph unicode="&#x2022;" d="M227 682q0 93 36 177.5t97.5 145.5t145.5 97.5t176 36.5q189 0 323 -134t134 -323q0 -92 -36.5 -176t-97.5 -145.5t-145.5 -97.5t-177.5 -36q-92 0 -176.5 36t-145.5 97t-97 145.5t-36 176.5z" />
<glyph unicode="&#x2026;" horiz-adv-x="2729" d="M244 143q0 67 49 116.5t117 49.5q67 0 116 -49t49 -117t-49 -117t-116 -49q-68 0 -117 49.5t-49 116.5zM1153 143q0 67 49.5 116.5t116.5 49.5q69 0 118.5 -49t49.5 -117t-49.5 -117t-118.5 -49q-67 0 -116.5 49.5t-49.5 116.5zM2064 143q0 68 48.5 117t117.5 49 q68 0 117 -49.5t49 -116.5t-49 -116.5t-117 -49.5q-69 0 -117.5 49t-48.5 117z" />
<glyph unicode="&#x202f;" horiz-adv-x="433" />
<glyph unicode="&#x2039;" d="M205 682l921 756l66 -64l-565 -692l565 -690l-66 -68z" />
<glyph unicode="&#x203a;" d="M172 -8l567 690l-567 692l68 64l921 -756l-921 -758z" />
<glyph unicode="&#x205f;" horiz-adv-x="542" />
<glyph unicode="&#x2122;" horiz-adv-x="2275" d="M137 1139v227h772v-227h-272v-684h-227v684h-273zM1139 455v911h204l250 -410l250 410h205v-911h-205v522l-250 -410l-250 410v-522h-204z" />
<glyph unicode="&#xe000;" horiz-adv-x="1064" d="M0 0v1065h1065v-1065h-1065z" />
</font>
</defs>
</svg>
